<?xml version="1.0" encoding="UTF-8"?>
<svg fill="none" version="1.1" viewBox="0 0 512 512" xmlns="http://www.w3.org/2000/svg" xmlns:cc="http://creativecommons.org/ns#" xmlns:dc="http://purl.org/dc/elements/1.1/" xmlns:rdf="http://www.w3.org/1999/02/22-rdf-syntax-ns#">
  <metadata>
    <rdf:RDF>
      <cc:Work rdf:about="">
        <dc:format>image/svg+xml</dc:format>
        <dc:type rdf:resource="http://purl.org/dc/dcmitype/StillImage"/>
      </cc:Work>
    </rdf:RDF>
  </metadata>
  <title>Animation</title>
  <g transform="matrix(.37647 0 0 .37647 -143.06 -98.447)" fill="#000">
    <g fill="#000">
      <g fill="#000">
        <path d="m380 1482v-43h643 643v43 43h-643-643v-43z"/>
        <path d="m555 741v-218h19.5 19.5v6.481 6.481s4.75-0.648 4.75-0.648c2.612-0.355 183.18-25.213 401.25-55.239 0 0 396.5-54.593 396.5-54.593s0.31-3.741 0.31-3.741 0.31-3.741 0.31-3.741h45.44 45.44v50.5 50.5h-45.5-45.5v-41.5c0-40.706-0.04-41.5-1.98-41.5-1.66 0-786.05 107.81-797.27 109.58 0 0-3.75 0.592-3.75 0.592v206.41 206.41h-19.5-19.5v-218z"/>
        <path d="m1630 802.5v-109.5h12 12v109.5 109.5h-12-12v-109.5z"/>
        <path d="m1666 802.5v-139.5h37 37v139.5 139.5h-37-37v-139.5z"/>
        <path d="m1362 400v-7h80.5 80.5v7 7h-80.5-80.5v-7z"/>
        <path d="m516 1303.5v-11.5h58.5 58.5v11.5 11.5h-58.5-58.5v-11.5z"/>
        <path d="m380.01 1411.2c0.017-20.54 3.003-35.27 9.468-46.71 9.332-16.53 23.635-27.87 42.54-33.72l7.484-2.32 1178.4-0.52 0.32 2.18c0.2 1.35 1.45 2.58 3.32 3.26 12.73 4.6 27.99 17.79 34.75 30.04 6.89 12.5 8.83 20.74 9.48 40.29l0.57 17.25h-643.15-643.15l8e-3 -9.75z"/>
        <path d="m1362 537v-7h80.5 80.5v7 7h-80.5-80.5v-7z"/>
        <path d="m1153 1106.5v-198.5h-213.5-213.5v35.776c0 19.677-0.465 39.59-1.033 44.25-2.16 17.704-8.277 30.404-20.505 42.554-9.169 9.11-16.248 13.57-27.345 17.23-7.271 2.39-8.947 2.52-36.867 2.94l-29.25 0.43v55.41 55.41h-8.458-8.458s-0.292 51.75-0.292 51.75-0.292 51.75-0.292 51.75-2.667 3.86-2.667 3.86c-4.236 6.13-8.159 8.07-16.333 8.09-8.037 0.02-12.38-2.17-16.578-8.37l-2.422-3.58s-0.292-51.75-0.292-51.75-0.292-51.75-0.292-51.75h-8.458-8.458v-55.41-55.41l-28.75-0.42c-28.058-0.41-28.927-0.48-36.121-3.07-21.741-7.82-36.738-22.77-44.866-44.73l-2.763-7.46v-179-179s2.628-8.117 2.628-8.117c6.038-18.648 18.813-33.835 35.24-41.892 14.541-7.132 17.522-7.644 47.882-8.227l26.75-0.513v198.62 198.62h36.5 36.5v-198.5-198.5h408 408v-12.5-12.5h15.5 15.5v12.42 12.42l50.25 0.408c48.23 0.392 50.54 0.497 57.58 2.606 24.33 7.293 40.66 23.14 48.89 47.439 0 0 2.78 8.207 2.78 8.207l0.26 333.75 0.27 333.75h-232.52-232.51v-198.5z"/>
        <path d="m1427 370.5v-12.5h15.5 15.5v12.5 12.5h-15.5-15.5v-12.5z"/>
      </g>
    </g>
  </g>
</svg>
