<svg inkscape:export-xdpi="96" xmlns:rdf="http://www.w3.org/1999/02/22-rdf-syntax-ns#" inkscape:export-ydpi="96" width="2048" viewBox="0 0 2048 2048" style="fill:none;stroke:none;" xmlns:svg="http://www.w3.org/2000/svg" xmlns:dc="http://purl.org/dc/elements/1.1/" xmlns="http://www.w3.org/2000/svg" xmlns:sodipodi="http://sodipodi.sourceforge.net/DTD/sodipodi-0.dtd" height="2048" xmlns:inkscape="http://www.inkscape.org/namespaces/inkscape" xmlns:cc="http://creativecommons.org/ns#" xmlns:osb="http://www.openswatchbook.org/uri/2009/osb" xmlns:xlink="http://www.w3.org/1999/xlink" version="1.1">
    <defs/>
    <sodipodi:namedview pagecolor="#ffffff" inkscape:pagecheckerboard="true" borderlayer="true" inkscape:document-units="px" bordercolor="#666666"/>
    <title></title>
    <g inkscape:label="Animation" id="MainComposition_6cb0c1f1646f445b8ca38b66f3cfef34" inkscape:groupmode="layer" wtf="Animation">
        <g transform="matrix(1, 0, 0, 1, 0, 0)" inkscape:label="Traced Image" opacity="1" id="Group_7211c12d3e1f495b89ae452dfbece18f">
            <g transform="matrix(1, 0, 0, 1, 0, 0)" inkscape:label="#0084ff" opacity="1" id="Group_a666f83ee10647b5b2d8e0ff8fa8a290">
                <g fill-opacity="1" style="" inkscape:label="Fill 2" fill="#0084ff" id="Fill_136ef4bb260b4823bf44df9c86bbb1d0">
                    <path style="" sodipodi:nodetypes="cccccccc" d="M 516,1303.5 C 516,1303.5 516,1292 516,1292 516,1292 574.5,1292 574.5,1292 574.5,1292 633,1292 633,1292 633,1292 633,1303.5 633,1303.5 633,1303.5 633,1315 633,1315 633,1315 574.5,1315 574.5,1315 574.5,1315 516,1315 516,1315 516,1315 516,1303.5 516,1303.5 Z"/>
                    <path style="" sodipodi:nodetypes="cccccccccccccccccccccccc" d="M 1628.07,2005.98 C 1659.03,2004.28 1675.68,2001.69 1705.88,1993.89 1806.25,1967.97 1892.36,1904.24 1946.9,1815.5 1974.7,1770.25 1994.41,1715.77 2001.88,1663.46 2006.12,1633.75 2006.15,1629.48 2005.81,1003.5 2005.5,436.65 2005.39,403.775 2003.71,391 1995.66,329.793 1976.89,275.489 1946.86,226.5 1898.19,147.116 1822.39,86.3613 1734.5,56.3002 1718.31,50.7637 1695.76,44.9273 1677.57,41.5677 1677.57,41.5677 1663.67,39 1663.67,39 1663.67,39 1020,39 1020,39 1020,39 376.326,39 376.326,39 376.326,39 362.413,41.5699 362.413,41.5699 337.052,46.2543 308.048,54.5925 285,63.8247 269.886,69.8788 242.088,83.979 226.5,93.4979 172.06,126.742 126.452,172.224 93.1266,226.5 83.0963,242.836 69.1276,270.265 62.8247,286 53.5925,309.048 45.2543,338.052 40.5699,363.413 40.5699,363.413 38,377.326 38,377.326 38,377.326 38,1021 38,1021 38,1021 38,1664.67 38,1664.67 38,1664.67 40.5432,1678.59 40.5432,1678.59 49.4217,1727.16 67.0805,1773.16 93.1049,1815.5 160.436,1925.05 274.723,1995.06 404,2005.93 418.568,2007.15 1605.88,2007.21 1628.07,2005.98 Z"/>
                    <path style="" sodipodi:nodetypes="cccccccccccccccccccccccccccccccccccccccccccccccccccccccccc" d="M 1153,1106.5 C 1153,1106.5 1153,908 1153,908 1153,908 939.5,908 939.5,908 939.5,908 726,908 726,908 726,908 726,943.776 726,943.776 726,963.453 725.535,983.366 724.967,988.026 722.807,1005.73 716.69,1018.43 704.462,1030.58 695.293,1039.69 688.214,1044.15 677.117,1047.81 669.846,1050.2 668.17,1050.33 640.25,1050.75 640.25,1050.75 611,1051.18 611,1051.18 611,1051.18 611,1106.59 611,1106.59 611,1106.59 611,1162 611,1162 611,1162 602.542,1162 602.542,1162 602.542,1162 594.084,1162 594.084,1162 594.084,1162 593.792,1213.75 593.792,1213.75 593.792,1213.75 593.5,1265.5 593.5,1265.5 593.5,1265.5 590.833,1269.36 590.833,1269.36 586.597,1275.49 582.674,1277.43 574.5,1277.45 566.463,1277.47 562.12,1275.28 557.922,1269.08 557.922,1269.08 555.5,1265.5 555.5,1265.5 555.5,1265.5 555.208,1213.75 555.208,1213.75 555.208,1213.75 554.916,1162 554.916,1162 554.916,1162 546.458,1162 546.458,1162 546.458,1162 538,1162 538,1162 538,1162 538,1106.59 538,1106.59 538,1106.59 538,1051.18 538,1051.18 538,1051.18 509.25,1050.76 509.25,1050.76 481.192,1050.35 480.323,1050.28 473.129,1047.69 451.388,1039.87 436.391,1024.92 428.263,1002.96 428.263,1002.96 425.5,995.5 425.5,995.5 425.5,995.5 425.5,816.5 425.5,816.5 425.5,816.5 425.5,637.5 425.5,637.5 425.5,637.5 428.128,629.383 428.128,629.383 434.166,610.735 446.941,595.548 463.368,587.491 477.909,580.359 480.89,579.847 511.25,579.264 511.25,579.264 538,578.751 538,578.751 538,578.751 538,777.376 538,777.376 538,777.376 538,976 538,976 538,976 574.5,976 574.5,976 574.5,976 611,976 611,976 611,976 611,777.5 611,777.5 611,777.5 611,579 611,579 611,579 1019,579 1019,579 1019,579 1427,579 1427,579 1427,579 1427,566.5 1427,566.5 1427,566.5 1427,554 1427,554 1427,554 1442.5,554 1442.5,554 1442.5,554 1458,554 1458,554 1458,554 1458,566.42 1458,566.42 1458,566.42 1458,578.84 1458,578.84 1458,578.84 1508.25,579.248 1508.25,579.248 1556.48,579.64 1558.79,579.745 1565.83,581.854 1590.16,589.147 1606.49,604.994 1614.72,629.293 1614.72,629.293 1617.5,637.5 1617.5,637.5 1617.5,637.5 1617.76,971.25 1617.76,971.25 1617.76,971.25 1618.03,1305 1618.03,1305 1618.03,1305 1385.51,1305 1385.51,1305 1385.51,1305 1153,1305 1153,1305 1153,1305 1153,1106.5 1153,1106.5 Z"/>
                    <path style="" sodipodi:nodetypes="cccccccc" d="M 1523,1188 C 1523,1188 1523,1173 1523,1173 1523,1173 1471,1173 1471,1173 1471,1173 1419,1173 1419,1173 1419,1173 1419,1188 1419,1188 1419,1188 1419,1203 1419,1203 1419,1203 1471,1203 1471,1203 1471,1203 1523,1203 1523,1203 1523,1203 1523,1188 1523,1188 Z"/>
                    <path style="" sodipodi:nodetypes="cccccccc" d="M 1364,1188 C 1364,1188 1364,1173 1364,1173 1364,1173 1312,1173 1312,1173 1312,1173 1260,1173 1260,1173 1260,1173 1260,1188 1260,1188 1260,1188 1260,1203 1260,1203 1260,1203 1312,1203 1312,1203 1312,1203 1364,1203 1364,1203 1364,1203 1364,1188 1364,1188 Z"/>
                    <path style="" sodipodi:nodetypes="ccccccccccccc" d="M 380.008,1411.25 C 380.025,1390.71 383.011,1375.98 389.476,1364.54 398.808,1348.01 413.111,1336.67 432.016,1330.82 432.016,1330.82 439.5,1328.5 439.5,1328.5 439.5,1328.5 1028.68,1328.24 1028.68,1328.24 1028.68,1328.24 1617.86,1327.98 1617.86,1327.98 1617.86,1327.98 1618.18,1330.16 1618.18,1330.16 1618.38,1331.51 1619.63,1332.74 1621.5,1333.42 1634.23,1338.02 1649.49,1351.21 1656.25,1363.46 1663.14,1375.96 1665.08,1384.2 1665.73,1403.75 1665.73,1403.75 1666.3,1421 1666.3,1421 1666.3,1421 1023.15,1421 1023.15,1421 1023.15,1421 380,1421 380,1421 380,1421 380.008,1411.25 380.008,1411.25 Z"/>
                    <path style="" sodipodi:nodetypes="cccccccc" d="M 380,1482 C 380,1482 380,1439 380,1439 380,1439 1023,1439 1023,1439 1023,1439 1666,1439 1666,1439 1666,1439 1666,1482 1666,1482 1666,1482 1666,1525 1666,1525 1666,1525 1023,1525 1023,1525 1023,1525 380,1525 380,1525 380,1525 380,1482 380,1482 Z"/>
                    <path style="" sodipodi:nodetypes="cccccccc" d="M 1140.52,724.129 C 1146.27,721.517 1153.27,713.291 1156.11,705.797 1159.53,696.794 1159.53,681.358 1156.12,671.909 1152.91,663.02 1148.11,656.688 1141.76,652.978 1137.1,650.254 1135.76,649.942 1129.98,650.223 1122.34,650.594 1118.97,652.562 1112.95,660.182 1107.78,666.721 1105,675.827 1105,686.211 1105,700.258 1108.86,711.022 1116.59,718.533 1123.81,725.55 1132.78,727.647 1140.52,724.129 Z"/>
                    <path style="" sodipodi:nodetypes="cccccc" d="M 1008.3,789.649 C 1012.75,787.79 1017.69,781.879 1019.07,776.763 1022.94,762.408 1010.9,742.004 993.489,733.397 983.438,728.43 973.124,726.917 966.515,729.441 951.968,734.997 948.268,748.041 956.51,764.718 962.221,776.272 972.1,784.918 984.487,789.201 990.594,791.313 1003.72,791.56 1008.3,789.649 Z"/>
                    <path style="" sodipodi:nodetypes="ccccccccccccccccccccccccc" d="M 366,2046.93 C 340.86,2044.81 321.46,2041.47 296,2034.88 195.668,2008.89 109.587,1945.15 55.1049,1856.5 29.0805,1814.16 11.4217,1768.16 2.54317,1719.59 2.54317,1719.59 1.7053e-13,1705.67 1.7053e-13,1705.67 1.7053e-13,1705.67 2.27374e-13,1022 2.27374e-13,1022 2.27374e-13,1022 2.84217e-13,338.326 2.84217e-13,338.326 2.84217e-13,338.326 2.56987,324.413 2.56987,324.413 7.2543,299.052 15.5925,270.048 24.8247,247 31.1276,231.265 45.0963,203.836 55.1266,187.5 88.4516,133.224 134.06,87.7422 188.5,54.4979 204.088,44.979 231.886,30.8788 247,24.8247 270.048,15.5925 299.052,7.2543 324.413,2.56987 324.413,2.56987 338.326,-4.54747e-13 338.326,-4.54747e-13 338.326,-4.54747e-13 1022,-2.27374e-13 1022,-2.27374e-13 1022,-2.27374e-13 1705.67,0 1705.67,0 1705.67,0 1719.57,2.56769 1719.57,2.56769 1737.76,5.92727 1760.31,11.7637 1776.5,17.3002 1827.3,34.6773 1876.33,63.6446 1916.27,99.8805 1988.26,165.189 2032.46,251.294 2045.71,352 2047.39,364.787 2047.5,399.258 2047.81,1004.5 2048.15,1672.27 2048.13,1674.67 2043.88,1704.46 2036.41,1756.77 2016.7,1811.25 1988.9,1856.5 1934.36,1945.24 1848.25,2008.97 1747.88,2034.89 1717.68,2042.69 1701.03,2045.28 1670.07,2046.98 1647.87,2048.21 380.573,2048.15 366,2046.93 Z"/>
                    <path style="" sodipodi:nodetypes="cccccccc" d="M 1362,537 C 1362,537 1362,530 1362,530 1362,530 1442.5,530 1442.5,530 1442.5,530 1523,530 1523,530 1523,530 1523,537 1523,537 1523,537 1523,544 1523,544 1523,544 1442.5,544 1442.5,544 1442.5,544 1362,544 1362,544 1362,544 1362,537 1362,537 Z"/>
                    <path style="" sodipodi:nodetypes="cccccccc" d="M 1427,370.5 C 1427,370.5 1427,358 1427,358 1427,358 1442.5,358 1442.5,358 1442.5,358 1458,358 1458,358 1458,358 1458,370.5 1458,370.5 1458,370.5 1458,383 1458,383 1458,383 1442.5,383 1442.5,383 1442.5,383 1427,383 1427,383 1427,383 1427,370.5 1427,370.5 Z"/>
                    <path style="" sodipodi:nodetypes="ccccc" d="M 1021.77,717.867 C 1038.95,709.554 1037.34,682.121 1018.51,662.162 1003.81,646.571 983.087,642.524 972.942,653.261 968.173,658.307 966.575,663.036 966.609,672 966.645,681.499 968.448,687.107 974.516,696.593 986.056,714.632 1008.03,724.523 1021.77,717.867 Z"/>
                    <path style="" sodipodi:nodetypes="cccccccc" d="M 1362,400 C 1362,400 1362,393 1362,393 1362,393 1442.5,393 1442.5,393 1442.5,393 1523,393 1523,393 1523,393 1523,400 1523,400 1523,400 1523,407 1523,407 1523,407 1442.5,407 1442.5,407 1442.5,407 1362,407 1362,407 1362,407 1362,400 1362,400 Z"/>
                    <path style="" sodipodi:nodetypes="ccccccccc" d="M 1379.5,1095.34 C 1372.17,1094.49 1358.6,1089.86 1350.07,1085.3 1292.13,1054.32 1284.57,975.289 1335.55,933.5 1344.34,926.297 1359.05,918.703 1369.71,915.865 1380.25,913.06 1401.98,912.805 1413.5,915.351 1424.06,917.682 1441.52,926.341 1450.57,933.728 1482.9,960.116 1493.32,1005.86 1475.66,1043.84 1465.28,1066.15 1444.45,1084.06 1419.61,1092.02 1411.33,1094.67 1408.21,1095.14 1396.76,1095.45 1389.47,1095.64 1381.7,1095.6 1379.5,1095.34 Z"/>
                    <path style="" sodipodi:nodetypes="cccccccc" d="M 1666,802.5 C 1666,802.5 1666,663 1666,663 1666,663 1703,663 1703,663 1703,663 1740,663 1740,663 1740,663 1740,802.5 1740,802.5 1740,802.5 1740,942 1740,942 1740,942 1703,942 1703,942 1703,942 1666,942 1666,942 1666,942 1666,802.5 1666,802.5 Z"/>
                    <path style="" sodipodi:nodetypes="cccccccccccc" d="M 1410.91,1134.51 C 1451.67,1128.39 1487.58,1102.49 1507.26,1065 1515.95,1048.46 1518.77,1039.16 1520.92,1020 1524.26,990.146 1520.26,968.661 1506.67,943.5 1496.98,925.547 1489.9,916.806 1475,904.41 1452.65,885.812 1421.44,874.056 1394.5,874.078 1361.08,874.106 1331.89,884.325 1307.56,904.522 1287.09,921.508 1275.38,938.72 1267.44,963.5 1258.66,990.888 1258.37,1017.35 1266.55,1043.6 1272.49,1062.68 1278.46,1073.68 1290.96,1088.6 1304.67,1104.95 1322.83,1118.43 1341.3,1125.97 1354.12,1131.2 1361.15,1133.01 1374.5,1134.51 1389.89,1136.24 1399.44,1136.24 1410.91,1134.51 Z"/>
                    <path style="" sodipodi:nodetypes="cccccccc" d="M 1542,738 C 1542,738 1542,653 1542,653 1542,653 1390,653 1390,653 1390,653 1238,653 1238,653 1238,653 1238,738 1238,738 1238,738 1238,823 1238,823 1238,823 1390,823 1390,823 1390,823 1542,823 1542,823 1542,823 1542,738 1542,738 Z"/>
                    <path style="" sodipodi:nodetypes="cccccccc" d="M 1630,802.5 C 1630,802.5 1630,693 1630,693 1630,693 1642,693 1642,693 1642,693 1654,693 1654,693 1654,693 1654,802.5 1654,802.5 1654,802.5 1654,912 1654,912 1654,912 1642,912 1642,912 1642,912 1630,912 1630,912 1630,912 1630,802.5 1630,802.5 Z"/>
                    <path style="" sodipodi:nodetypes="cccccccccc" d="M 1063,842.919 C 1068.36,840.493 1074.42,835.58 1086.28,824.041 1095.84,814.748 1104.68,808.817 1112.5,806.458 1115.25,805.629 1124.25,804.496 1132.5,803.942 1150.13,802.758 1153.22,802.051 1159.6,797.736 1176.64,786.211 1169.88,766.559 1142.71,748.668 1116.1,731.142 1092.86,723.159 1076.78,726.018 1060.45,728.921 1044.99,741.255 1036.38,758.242 1030.92,769.002 1027.33,794.321 1028.97,810.5 1030.77,828.313 1032.33,833.102 1038.16,838.697 1044.89,845.142 1054.49,846.774 1063,842.919 Z"/>
                    <path style="" sodipodi:nodetypes="ccccccccccccccccccccccccc" d="M 555,741 C 555,741 555,523 555,523 555,523 574.5,523 574.5,523 574.5,523 594,523 594,523 594,523 594,529.481 594,529.481 594,529.481 594,535.962 594,535.962 594,535.962 598.75,535.314 598.75,535.314 601.362,534.959 781.925,510.101 1000,480.075 1000,480.075 1396.5,425.482 1396.5,425.482 1396.5,425.482 1396.81,421.741 1396.81,421.741 1396.81,421.741 1397.12,418 1397.12,418 1397.12,418 1442.56,418 1442.56,418 1442.56,418 1488,418 1488,418 1488,418 1488,468.5 1488,468.5 1488,468.5 1488,519 1488,519 1488,519 1442.5,519 1442.5,519 1442.5,519 1397,519 1397,519 1397,519 1397,477.5 1397,477.5 1397,436.794 1396.96,436 1395.02,436 1393.36,436 608.968,543.814 597.75,545.584 597.75,545.584 594,546.176 594,546.176 594,546.176 594,752.588 594,752.588 594,752.588 594,959 594,959 594,959 574.5,959 574.5,959 574.5,959 555,959 555,959 555,959 555,741 555,741 Z"/>
                    <path style="" sodipodi:nodetypes="ccccccc" d="M 1078.87,691.066 C 1090.39,685.191 1096.71,665.151 1092.59,647.613 1090.72,639.683 1085.39,628.985 1080.4,623.16 1075.66,617.616 1066.17,612.994 1059.59,613.022 1049.87,613.064 1043.22,618.016 1038.13,629 1034.78,636.227 1033.99,650.46 1036.4,660.053 1039.92,674.023 1049.04,686.391 1059.23,691.02 1064.93,693.604 1073.85,693.625 1078.87,691.066 Z"/>
                </g>
            </g>
        </g>
    </g>
</svg>
