<?xml version="1.0" encoding="UTF-8"?>
<svg fill="none" version="1.1" viewBox="0 0 2048 2048" xmlns="http://www.w3.org/2000/svg" xmlns:cc="http://creativecommons.org/ns#" xmlns:dc="http://purl.org/dc/elements/1.1/" xmlns:rdf="http://www.w3.org/1999/02/22-rdf-syntax-ns#">
  <metadata>
    <rdf:RDF>
      <cc:Work rdf:about="">
        <dc:format>image/svg+xml</dc:format>
        <dc:type rdf:resource="http://purl.org/dc/dcmitype/StillImage"/>
      </cc:Work>
    </rdf:RDF>
  </metadata>
  <g transform="matrix(1.2317 0 0 1.2317 -275.4 -313.2)" fill="#000">
    <path d="m819 1470.5c4.125-2.31 13.462-7.19 20.75-10.84s13.25-6.78 13.25-6.95c0-0.41-4.562-13.61-5.473-15.84-0.605-1.49-1.492-1.29-7.827 1.75-7.893 3.78-12.063 4.25-15.603 1.78-1.447-1.02-6.468-10.13-13.084-23.75-5.905-12.16-16.68-32.91-23.946-46.11s-16.182-30.08-19.814-37.5c-5.702-11.66-15.766-30.71-16.837-31.88-1.216-1.33-8.01 3.51-15.869 11.32-8.803 8.74-22.547 27.49-22.547 30.76 0 2.44 14.053 6.25 23.144 6.28 9.357 0.02 10.213 0.67 16.595 12.48 2.537 4.7 7.722 13.94 11.521 20.54 9.451 16.42 33.453 65.19 34.199 69.5 0.911 5.26-2.003 9.09-10.377 13.65-3.888 2.12-7.072 4.31-7.075 4.87-7e-3 1.04 3.362 6.4 7.7 12.25l2.424 3.27 10.685-5.69c5.876-3.13 14.059-7.58 18.184-9.89z"/>
    <path d="m1111 1354c-0.83-0.54-3.3-1.48-5.5-2.08-7.43-2.05-16.9-8.45-22.33-15.08-5.91-7.21-11.3-17.87-13.07-25.82-1.62-7.27-1.03-98.19 0.68-105.21 3.95-16.23 20.95-32.96 38.02-37.41 4.15-1.08 15.76-1.38 53.73-1.38 28.22 0 50.22 0.41 52.71 0.98 2.34 0.55 5.45 1.22 6.91 1.5 2.98 0.57 16.63 9.51 20.53 13.44 3.93 3.96 10.3 15.58 11.89 21.69 2.15 8.24 2.07 105.69-0.08 112.81-2.04 6.71-9.95 19.95-13.82 23.12-7.35 6.02-11.03 8.42-14.98 9.76-14.6 4.93-11.44 4.7-63.82 4.68-30.7 0-49.94-0.38-50.87-1z"/>
    <path d="m1536.9 993.49c-1.45-0.786-3.02-2.231-3.5-3.21s-1.09-25.18-1.37-53.78l-0.5-52s-397.12-0.5-397.12-0.5l-397.13-0.5-3.877-2.752c-4.553-3.233-57.087-51.515-61.417-56.446-3.106-3.537-3.831-7.806-1.93-11.357 1.723-3.22 6.401-4.945 13.406-4.945 6.331 0 10.585-0.705 21.064-3.488 2.75-0.731 7.475-1.869 10.5-2.529 7.42-1.618 27.787-12.323 39.366-20.69 6.054-4.375 16.645-14.439 19.251-18.293 1.301-1.925 4.154-5.975 6.34-9 4.008-5.546 14.043-24.477 14.043-26.491 0-0.597 0.917-2.869 2.037-5.048 5.447-10.595 6.147-19.333 6.84-85.461 0.342-32.725 1.015-60.304 1.494-61.287 2.423-4.97-10.897-4.713 244.63-4.713 255.53 0 242.21-0.257 244.63 4.713 0.48 0.983 1.17 26.537 1.53 56.787 0.62 52.177 1.43 69.532 3.61 77.5 3.17 11.565 9.51 27.68 13.97 35.5 1.56 2.75 3.73 6.575 4.8 8.5 3.43 6.131 24.42 26.743 33.59 32.978 16.33 11.108 30.82 17.24 47.87 20.253 7.34 1.297 34.16 1.551 41 0.387 8.86-1.509 16.59-3.626 20.48-5.605 2.17-1.107 4.45-2.013 5.07-2.013 2.18 0 14.04-6.382 23.45-12.615 9.79-6.486 24.71-20.656 29.36-27.885 1.41-2.2 3.95-5.95 5.64-8.333 7.64-10.788 17-33.312 17-40.903 0-1.661 0.67-4.635 1.5-6.61 1.28-3.055 1.5-12.517 1.5-63.575 0-44.377 0.31-60.667 1.19-62.607 2.54-5.567 1.33-5.472 69.81-5.472s67.27-0.095 69.81 5.472c0.91 2.005 1.19 50.141 1.19 204.62 0 221.56 0.43 206.24-5.93 208.87-3.01 1.249-6.74 1.134-25.57-0.791-4.4-0.45-9.27-1.35-10.82-1.999-4.52-1.896-56.68-1.624-61.33 0.32-1.98 0.825-5.78 1.5-8.46 1.5-5.07 0-11.16 1.143-19.02 3.569-5.88 1.814-14.59 1.776-18-0.079z"/>
    <path d="m1595.4 1350.5c-2.25-0.71-5.63-2.08-7.5-3.04-4.25-2.18-15.92-10.73-15.92-11.66 0-0.38-1.75-2.71-3.89-5.19-2.14-2.47-4.56-6.44-5.36-8.81-4.76-14.03-4.9-14.86-4.62-26.87 0.26-10.87 0.11-12.06-1.8-14.15-1.15-1.26-2.83-3.64-3.73-5.29s-3.21-5.03-5.12-7.5c-3.02-3.91-9.89-13.72-17.14-24.46-2.89-4.29-11.49-16.09-15.33-21.04-11.53-14.86-14.01-21.12-14.01-35.34 0-9.56 0.29-11.35 2.57-15.93 3.81-7.64 11.73-14.43 19.27-16.53 6.66-1.85 18.14-2.24 22.76-0.78 1.6 0.5 4.21 1.2 5.81 1.56 3.93 0.86 15.84 12.53 19.6 19.2 1.67 2.94 4.51 7.03 6.33 9.09 1.82 2.05 4.94 6.45 6.94 9.78 1.99 3.33 4.57 6.91 5.72 7.95s3.73 4.62 5.74 7.95c2 3.33 6.71 10.2 10.46 15.27 3.76 5.06 7.74 10.76 8.86 12.66 2.16 3.67 7.88 6.63 12.71 6.6 1.5-0.01 7.36 2.32 13.01 5.18 7.55 3.82 11.22 6.35 13.82 9.52 0 0 3.53 4.32 3.53 4.32l32.69 0.01c32.21 0.01 32.75 0.04 37.68 2.36 2.83 1.33 7.43 4.92 10.62 8.28 6.73 7.1 8.88 13.17 8.88 25.09 0 6.81-0.42 8.79-2.97 13.85-4.48 8.94-8.28 12.9-16.19 16.85l-7.11 3.56h-65.31l-4.46 4.61c-2.98 3.08-7.75 6.24-14.37 9.5l-9.91 4.89-14.09-0.1c-8.44-0.06-15.73-0.61-18.17-1.39z"/>
    <path d="m295.89 1348.5c-3.301-1.79-5.278-6.45-4.413-10.39 0.367-1.67 3.44-6.05 6.89-9.81 6.287-6.87 72.316-78.53 113.14-122.8 12.173-13.2 30.408-33 40.521-44 10.114-11 44.733-48.56 76.931-83.48 32.199-34.91 72.213-78.335 88.921-96.497 16.708-18.163 31.783-34.241 33.5-35.73 3.737-3.241 7.369-4.22 10.806-2.913 3.324 1.264 14.785 11.907 15.856 14.726 0.461 1.211 1.344 11.358 1.962 22.548 1.441 26.056 3.323 41.126 5.879 47.076 1.118 2.6 2.542 6.65 3.167 9 1.753 6.6 12.576 24.81 19.523 32.85 3.439 3.98 11.492 12.03 17.895 17.89 6.402 5.85 12.514 11.97 13.581 13.59 3.62 5.49 2.096 10.6-4.359 14.61-8.709 5.42-88.096 48.09-91.073 48.95-6.073 1.77-8.287 0.34-25.564-16.46-9.103-8.86-18.68-18.11-21.281-20.57l-4.73-4.48-2.62 2.45c-4.495 4.19-14.016 25.17-17.381 38.3-1.671 6.52-3.039 12.28-3.039 12.8 0 0.56 4.578 0.82 11.08 0.64 11.057-0.3 11.084-0.29 13.5 2.51 5.356 6.2 2.417 11.31-10.58 18.38-64.517 35.1-89.815 48.84-106.5 57.83-11 5.92-51.05 27.66-89 48.31-95.078 51.73-86.894 47.78-92.612 44.67z"/>
    <path d="m269.5 1388.3c-1.1-0.26-3.8-1.88-6-3.6-6.42-5.04-35.812-32.47-37.977-35.45-2.689-3.7-2.547-9.12 0.336-12.79 1.272-1.62 9.166-10.37 17.541-19.45s34.31-37.2 57.632-62.5 52.781-57.25 65.463-71c57.753-62.62 84.629-91.79 105.49-114.51 12.366-13.47 25.671-27.86 29.567-31.99 3.895-4.12 17.194-18.52 29.553-32 75.91-82.765 118.3-128.16 120.98-129.54 6.211-3.212 6.238-3.192 45.014 32.515 13.422 12.36 26.968 25.061 30.103 28.224 6.499 6.559 7.546 9.723 5.939 17.952-5.839 29.902 1.791 62.932 20.858 90.292 4.151 5.96 15.471 17.36 23.692 23.86 8.023 6.35 10.311 9.09 10.311 12.38 0 5.64-2.751 8.08-18.298 16.23-12.469 6.54-13.738 6.13-31.308-10.03-16.583-15.26-22.54-22.74-32.756-41.15-3.297-5.94-6.461-14-11.111-28.3-2.294-7.06-4.526-29.739-4.541-46.138l-0.014-15.792-15.331-13.948c-8.433-7.672-15.791-14.102-16.352-14.289-0.562-0.187-10.644 10.114-22.405 22.892s-53.784 58.375-93.384 101.32-95.62 103.73-124.49 135.06-58.119 63.06-65 70.51c-6.881 7.46-22.636 24.54-35.011 37.96s-27.099 29.37-32.72 35.45l-10.22 11.04s5.713 5.77 5.713 5.77c5.343 5.41 5.712 6.09 5.693 10.5-0.028 6.55-5.789 25.03-8.67 27.81-2.579 2.49-5.333 3.39-8.296 2.71z"/>
    <path d="m548 1695.8c-4.855-3.26-13.441-19.84-12.558-24.26 0.334-1.67 3.266-12.04 6.516-23.04 7.441-25.19 9.042-33.97 9.042-49.62 0-14.67-2.425-27.82-7.559-41-3.698-9.5-32.176-62.59-36.025-67.16-1.329-1.58-2.416-3.31-2.416-3.85 0-2.6-20.139-21.51-29.432-27.65-11.913-7.86-20.402-11.35-48.029-19.76-11.529-3.51-22.091-7.23-23.473-8.26-3.672-2.74-10.032-14.96-10.05-19.31-0.02-4.61 2.844-7.56 12.341-12.7 8.497-4.59 83.55-45.31 109.14-59.21 9.9-5.37 41.85-22.71 71-38.53 29.15-15.81 62.225-33.79 73.5-39.95 11.275-6.17 29.5-16.05 40.5-21.97s25.175-13.58 31.5-17.03c66.905-36.52 129.19-70.12 132.08-71.26 5.907-2.33 9.784-0.04 14.965 8.84 5.777 9.89 5.938 12.78 1.527 27.42-8.697 28.87-10.733 38.29-11.299 52.3-0.731 18.12 1.584 32.2 7.877 47.91 4.066 10.16 28.547 55.3 36.202 66.76 14.923 22.33 39.988 39.54 69.149 47.46 16.409 4.47 30.36 9.17 32.76 11.06 1.36 1.07 4.62 6.18 7.24 11.36 4.02 7.94 4.66 9.97 4.1 12.97-1.12 5.98 5.96 1.75-89.1 53.23-23.1 12.5-72.6 39.39-110 59.74s-76.775 41.71-87.5 47.47c-10.725 5.75-24.675 13.29-31 16.74s-34.45 18.75-62.5 33.99-59.569 32.38-70.043 38.09c-10.474 5.72-20.374 10.65-22 10.98-2.144 0.42-3.919-0.06-6.457-1.76z"/>
    <path d="m996.1 1123c-5.3-3.83-58.728-53-62.096-57.14-1.375-1.68-4.759-7.17-7.521-12.19 0 0-5.021-9.12-5.021-9.12l-7.979-2.77c-4.388-1.52-12.3-3.89-17.582-5.27l-9.603-2.5-5.397 2.51c-3.536 1.64-7.164 2.51-10.521 2.52-2.819 0.01-7.038 0.68-9.376 1.51-6.772 2.39-12.25 1.98-15.384-1.16-1.461-1.46-2.899-3.62-3.195-4.8-0.835-3.33 0.199-42.485 1.255-47.54 1.56-7.467 8.03-18.53 14.057-24.039 7.023-6.418 12.727-9.719 22.715-13.144l8.052-2.761 46.866-0.028c39.293-0.023 47.614 0.218 51.5 1.492 2.549 0.837 7.171 2.204 10.272 3.039 11.212 3.018 23.212 14.608 28.762 27.786 0 0 2.6 6.155 2.6 6.155s0.28 53.88 0.28 53.88c0.32 60.31 0.42 59.3-6.78 71.62-3.54 6.06-8.51 11.08-13.68 13.84-3.69 1.96-7.79 1.33-12.224-1.89z"/>
    <path d="m1401 778.09c-0.83-0.49-4.65-1.671-8.5-2.623-8.21-2.031-17.79-6.671-25.5-12.346-3.03-2.227-7.84-5.622-10.7-7.544-2.86-1.921-5.96-4.976-6.89-6.787-0.92-1.811-3.24-5.033-5.15-7.16-3.53-3.943-12.33-21.499-14.85-29.633-0.76-2.475-1.39-6.652-1.4-9.282s-0.68-6.398-1.51-8.372c-1.3-3.107-1.5-16.568-1.5-100.03 0-71.713 0.3-97.004 1.17-98.628 0.64-1.201 1.52-5.559 1.96-9.684 1.2-11.408 2.14-14.583 7.86-26.462 4.82-10.03 6.22-11.931 16.39-22.357 10.51-10.775 11.77-11.724 23.12-17.426 6.6-3.317 13.35-6.448 15-6.96 13.89-4.301 46.08-4.302 60-2e-3 3.82 1.181 15.29 6.98 22.84 11.547 7.96 4.823 22.37 19.618 27.47 28.22 4.17 7.026 8.06 15.866 10.75 24.44 1.19 3.766 1.42 22.78 1.43 116.6 0.01 79.426-0.31 113.09-1.1 115.5-2.38 7.285-6.3 16.726-9.94 23.899-3.01 5.946-5.93 9.591-14.12 17.591-14.81 14.47-24.72 20.668-40.83 25.533-6.4 1.933-10.21 2.309-26 2.563-10.17 0.164-19.17-0.103-20-0.594z"/>
    <path d="m1104.1 1134c-7.31-2.49-14.08-7.42-21.19-15.44-6.74-7.59-10.44-14.21-12.23-21.88-1.69-7.23-1.7-100.79-0.01-108.96 3.24-15.739 21-33.701 36.57-36.995 7.85-1.661 98.62-2.245 105.72-0.68 11.87 2.617 16.42 3.953 18.42 5.413 1.14 0.837 3.66 2.589 5.58 3.892 4.67 3.161 6.85 5.778 11.8 14.138 7.35 12.407 7.18 10.796 7.18 68.971 0 56.69 0.11 55.44-5.96 67.46-4.31 8.54-10.74 15.12-19.03 19.48-12.78 6.71-11.01 6.54-68.99 6.48-48.1-0.06-52.95-0.21-57.86-1.88z"/>
    <path d="m1017.5 1306.2c-1.1-0.27-6.95-3.77-13-7.78-13.436-8.89-24.87-20.15-26.402-26-2.658-10.14-3.93-20.98-3.892-33.15 0.049-15.93-0.374-15.04 15.739-32.82 16.015-17.66 18.185-19.5 23.015-19.5 7.9 0 10.93 3.14 14.43 14.93 1.38 4.65 1.61 12.08 1.61 51.74v46.3l-2.75 2.94c-2.94 3.14-5.54 4.13-8.75 3.34z"/>
    <path d="m529.5 1761.2c-1.65-1.01-3.508-2.47-4.13-3.25-2.735-3.42-46.415-84.9-46.91-87.51-0.366-1.93 0.138-4.07 1.503-6.4 12.154-20.71 18.591-44.88 17.662-66.3-1.386-31.98-13.631-58.97-36.835-81.2-8.999-8.62-12.96-11.63-25.29-19.23-4.228-2.61-21.379-8.69-29.5-10.47-4.675-1.02-12.674-2.22-17.775-2.67-8.294-0.72-9.592-1.11-12.273-3.68-2.696-2.58-11.824-18.78-38.319-67.98-9.838-18.27-10.603-21.7-5.883-26.31 1.512-1.48 13.1-8.28 25.75-15.11s43.25-23.41 68-36.85c24.75-13.45 74.25-40.3 110-59.69 35.75-19.38 96.275-52.23 134.5-72.99s75.35-40.91 82.5-44.78c16.166-8.74 22.493-12.18 82.042-44.57 26.423-14.38 49.373-26.4 51-26.73 4.537-0.9 9.035 2.83 13.953 11.56 15.672 27.83 40.687 75.35 41.135 78.14 0.41 2.55-0.228 4.8-2.658 9.36-1.758 3.3-3.565 7.13-4.015 8.5-0.449 1.38-2.227 5.88-3.951 10-1.723 4.13-4.152 12.9-5.398 19.5-1.982 10.5-2.173 13.69-1.535 25.5 0.844 15.6 3.532 28.65 7.939 38.55 11.267 25.28 24.307 41.46 43.488 53.95 18.268 11.9 36.42 18.21 58.86 20.48 6.31 0.63 8.32 1.26 10.18 3.16 1.28 1.3 9.15 14.96 17.49 30.36s18.72 34.55 23.07 42.55c4.34 8 7.9 15.74 7.9 17.2 0 4.88-2.23 7.8-8.94 11.69-5.35 3.09-99.403 54.24-189.56 103.08-9.9 5.36-40.95 22.23-69 37.48-28.05 15.26-59.55 32.36-70 38.02-59.105 31.98-119.29 64.63-158.5 85.98-67.687 36.87-61.221 33.89-66.5 30.66z"/>
    <path d="m659.5 775.99c-1.65-0.443-5.475-1.359-8.5-2.035-5.741-1.282-16.302-6.219-26.459-12.368-16.268-9.849-31.837-32.709-37.857-55.586-1.407-5.347-1.706-219.9-0.316-226.5 1.907-9.043 10.688-27.755 16.564-35.296 6.062-7.78 11.787-13.541 15.784-15.883 2.356-1.381 4.284-2.941 4.284-3.466 0-1.184 8.476-5.506 17.187-9.951 8.637-4.406 16.848-5.895 36.313-6.586 16.375-0.581 22.734 0.506 40.629 6.947 10.115 3.641 27.969 16.612 33.463 24.311 2.425 3.4 5.125 6.774 5.999 7.499 2.555 2.121 11.025 19.93 12.33 25.925 0.658 3.025 1.846 7.585 2.638 10.134 2.154 6.926 2.154 210.81 0 217.73-0.792 2.549-1.953 7.109-2.578 10.134-1.222 5.91-9.269 22.937-13.961 29.541-6.046 8.508-19.206 19.734-30.181 25.745-9.793 5.363-13.228 6.627-26.103 9.61-5.402 1.252-34.67 1.321-39.236 0.093z"/>
    <path d="m568.79 1700.2c19.74-10.76 36.622-19.92 72.213-39.18 6.875-3.72 62-33.63 122.5-66.48 107.62-58.43 187.37-101.7 246.5-133.74 16.22-8.79 30.06-16.51 30.74-17.15 0.98-0.92-0.77-4.9-8.19-18.64-12.96-23.98-12.8-23.75-17.28-24.5-9.08-1.52-30.832-8.21-43.589-13.4-20.866-8.49-44.573-28.13-56.823-47.07-6.252-9.67-19.691-34.02-22.902-41.5-1.181-2.75-2.974-6.8-3.983-9-1.01-2.2-3.058-9.85-4.551-17-3.659-17.53-4.143-36.65-1.29-51 2.538-12.77 7.296-29.83 11.087-39.76 0 0 2.963-7.76 2.963-7.76l-10.187-18.99c-5.602-10.44-10.655-18.99-11.229-18.99s-6.268 2.87-12.655 6.39c-6.386 3.51-28.486 15.5-49.111 26.64s-55.05 29.81-76.5 41.48c-36.475 19.85-50.457 27.44-110.5 59.95-12.925 7-31.6 17.13-41.5 22.51s-36.45 19.8-59 32.04-44.825 24.37-49.5 26.94c-4.675 2.58-28.413 15.44-52.75 28.59s-44.25 24.19-44.25 24.55c0 0.35 4.458 8.91 9.907 19.02l9.907 18.39 5.843 1.29c39.314 8.72 62.932 20.29 84.387 41.36 11.758 11.54 17.473 19.65 29.486 41.85 17.196 31.77 20.978 45.22 20.957 74.5-0.012 17.52-0.112 18.38-3.693 32-2.024 7.7-5.312 18.72-7.306 24.5s-3.859 11.44-4.144 12.59c-0.554 2.24 20.074 41.41 21.808 41.41 0.507 0 10.693-5.33 22.635-11.84z"/>
    <path d="m686.99 1498.6c-3e-3 -0.6-3.642-7.17-8.085-14.59-10.177-17.01-12.909-22.35-12.904-25.22 9e-3 -5.48 3.15-7.99 25.339-20.22 23.409-12.91 22.708-12.24 20.604-19.81-1.015-3.66-2.575-4.65-4.497-2.87-0.523 0.49-10.871 5.89-22.996 12-23.988 12.1-27.247 13.01-31.841 8.87-2.386-2.15-17.894-27.08-21.339-34.3-0.905-1.9-2.06-3.45-2.567-3.45-1.26 0-13.707 9.97-13.707 10.98 0 0.44 3.611 7.72 8.024 16.16 9.955 19.06 10.754 21.46 8.557 25.7-2.065 4-4.661 5.62-29.989 18.7l-20.661 10.67 3.639 6.64c2.002 3.66 3.779 6.8 3.95 6.98 0.17 0.18 6.311-3.02 13.645-7.11 7.334-4.1 18.18-9.99 24.101-13.08 18.181-9.52 17.048-10.38 37.672 28.55 0 0 3.544 6.69 3.544 6.69l9.759-5.1c5.368-2.81 9.756-5.6 9.752-6.19z"/>
    <path d="m1587 1469.5c0.55-12.07 1.41-14.14 8.42-20.29 3.75-3.3 12.23-6.21 18.08-6.21 5.92 0 14.35 2.93 18.23 6.33 5.93 5.21 8.25 11.55 8.26 22.54l0.01 9.38 5.25-0.61c15.99-1.84 17.41-2.23 33.75-9.14 3.03-1.28 7.53-3.04 10-3.91 5.38-1.91 24.87-13.13 30.5-17.56 2.2-1.73 5.65-4.36 7.67-5.84 9.78-7.17 14.71-11.33 18.83-15.92 5.57-6.19 15.98-18.84 18-21.85 0.83-1.24 2.98-4.36 4.78-6.93 1.81-2.58 4.41-6.78 5.79-9.34s3.42-6.1 4.55-7.88c4.4-6.96 12.15-27.19 13.9-36.27 0.47-2.47 1.84-7.98 3.03-12.24s1.91-8.42 1.59-9.25c-0.46-1.21-2.63-1.51-10.99-1.51-9.42 0-10.94-0.27-15.79-2.76-4.43-2.29-5.84-3.71-8.11-8.18-2.35-4.63-2.75-6.64-2.75-13.8 0-11.05 2.42-16.94 8.88-21.64 8.04-5.85 10.31-6.62 19.51-6.62 4.67 0 8.71-0.35 8.97-0.78 0.52-0.84-0.72-7.07-2.83-14.22-0.73-2.47-1.87-6.97-2.53-10-0.67-3.03-2.24-7.97-3.51-11-5.14-12.33-10.77-24.37-13.3-28.45-1.48-2.38-4.66-7.55-7.08-11.48-2.41-3.93-5.22-7.59-6.24-8.14-1.02-0.54-2.57-2.44-3.46-4.21-2.12-4.24-23.53-25.94-29.91-30.31-2.75-1.89-6.8-4.79-9-6.44-2.2-1.66-6.25-4.18-9-5.6-2.75-1.43-5.9-3.4-7-4.38-5.86-5.26-33.63-16.05-49-19.04-3.3-0.65-7.64-1.77-9.64-2.51-2-0.73-3.91-1.06-4.25-0.72-0.33 0.34-0.61 5.07-0.61 10.51 0 5.54-0.51 10.86-1.15 12.09-1.63 3.07-10.69 12.94-13.23 14.39-1.24 0.72-6.04 1.23-11.62 1.24-8.88 0.02-9.89-0.19-15.5-3.26-5-2.75-6.46-4.19-8.75-8.67-2.47-4.82-2.75-6.43-2.75-15.53 0-5.59-0.28-10.44-0.63-10.78-0.34-0.35-2.2 0.03-4.12 0.83s-4.9 1.46-6.62 1.46c-2.99 0-9.77 1.97-25.13 7.29-11.8 4.1-26 11.24-36.57 18.39-5.54 3.75-11.67 7.79-13.63 8.97-6.27 3.77-31.08 29.36-38.16 39.35-6.97 9.84-19.95 34.32-23.32 43.97-6.96 19.98-10.61 33.94-9.39 35.91 0.42 0.68 4 1.12 9.17 1.12 6.64 0 9.39 0.46 12.69 2.11 11.35 5.7 15.68 12.46 15.7 24.48 0.01 6.06-0.47 8.03-3.24 13.43-2.22 4.32-4.62 7.29-7.59 9.4-4.08 2.89-5.03 3.11-15.5 3.58l-11.16 0.5-0.32 3.34c-0.18 1.84 0.84 6.93 2.25 11.31 1.41 4.39 2.58 8.96 2.59 10.16 0.02 1.21 1.18 4.89 2.59 8.19s3.16 7.85 3.89 10.12c3.63 11.25 17.51 34.91 26.45 45.06 2.23 2.53 4.05 5.05 4.05 5.6 0 1.78 18.4 19.85 22.22 21.82 2.04 1.05 4.15 2.72 4.68 3.71 1.56 2.91 19.55 14.46 33.64 21.59 12.52 6.34 21.66 9.95 33.46 13.22 3.03 0.83 6.85 1.9 8.5 2.37s5.25 0.77 8 0.68l5-0.17z"/>
    <path d="m1008.9 1570.1c-3.6-3.6-3.85-7.92-0.67-11.51 1.24-1.39 27-15.96 57.25-32.37s57.81-31.38 61.25-33.27c5.17-2.84 6.49-4.12 7.7-7.43 2.54-6.95 8.55-28.37 8.55-30.46 0-1.11-2.96-7.7-6.58-14.65-7.32-14.07-7.52-15.88-2.35-20.66l3-2.76 92.79 0.26 92.8 0.27 3.69 2.82c2.63 2 5.19 5.79 8.8 13 11.27 22.5 29.86 51.01 40.74 62.47 2.96 3.12 7.08 7.93 9.15 10.69 4.66 6.21 15.8 17.01 22.46 21.76 2.75 1.97 6.02 4.96 7.27 6.65 1.24 1.69 3.72 3.82 5.5 4.73 3.05 1.56 4.86 2.95 14.89 11.38 4.86 4.09 8.2 10.73 7.26 14.46-0.35 1.4-1.97 3.67-3.61 5.04l-2.96 2.5h-424z"/>
    <path d="m1325 1129.8c-4.12-2.24-8.98-5.36-10.78-6.94-1.81-1.59-3.68-2.88-4.16-2.88-0.47 0-1.8-1.46-2.96-3.25-1.15-1.79-3-4.6-4.11-6.25s-2.91-5.97-4-9.61c-1.88-6.22-1.99-9.6-1.99-58.39 0-48.794 0.11-52.166 1.99-58.392 1.09-3.634 2.78-7.785 3.75-9.224 0.97-1.438 2.94-4.363 4.38-6.5 2.86-4.241 4.6-5.961 9.89-9.78 5.85-4.224 8.16-5.243 16.99-7.498 8.26-2.11 9.89-2.162 57.5-1.824 32.29 0.229 50.61 0.739 53.71 1.495 12.23 2.981 25.54 13.518 32.07 25.399 4.67 8.488 5.72 12.764 6.35 25.824 0.6 12.43-0.55 14.43-11.52 19.95-4.38 2.2-8.25 4.47-8.61 5.05-0.35 0.57-3.2 2.41-6.32 4.08-9.95 5.32-17.83 10.29-23.67 14.92-3.12 2.47-8.09 6.3-11.04 8.5s-7.75 5.86-10.66 8.14c-7.43 5.8-33.43 32.4-34.23 35.02-0.36 1.19-2.22 3.35-4.12 4.8-1.9 1.46-4.19 4.08-5.07 5.84-0.89 1.76-2.85 4.55-4.35 6.2-1.51 1.65-4.69 6.07-7.07 9.82-5.33 8.38-7.69 9.7-17.17 9.62-6.58-0.05-8.04-0.46-14.8-4.12z"/>
    <path d="m417.92 1048.1s-2.923-2.93-2.923-2.93v-233.03c0-178.54 0.279-233.64 1.195-235.65 2.532-5.558 1.46-5.472 68.305-5.472s65.773-0.086 68.305 5.472c0.882 1.936 1.195 17.647 1.195 60.01 0 41.02 0.329 58.191 1.152 60.203 0.634 1.548 1.486 5.065 1.893 7.815 2.056 13.883 3.233 17.615 9.626 30.5 9.611 19.37 24.075 38.552 32.396 42.963 1.962 1.04 4.191 2.643 4.954 3.563 1.871 2.254 16.921 12.008 20.01 12.967 1.358 0.423 4.944 1.987 7.969 3.478s7.75 3.261 10.5 3.933c2.75 0.673 7.25 1.857 10 2.632 2.75 0.774 6.249 1.657 7.775 1.961 5.743 1.146 8.942 7.15 6.697 12.57-2.044 4.935-5.951 6.308-19.22 6.751 0 0-11.748 0.393-11.748 0.393l-24.143 26.144c-13.279 14.38-25.635 27.215-27.457 28.522-2.134 1.532-5.375 2.599-9.108 3l-5.796 0.623s-0.68 6.875-0.68 6.875c-0.473 4.788-1.384 7.865-3 10.132-1.276 1.79-30.435 33.754-64.799 71.03-34.363 37.273-63.346 68.883-64.407 70.223-3.19 4.06-9.709 8.24-12.841 8.24-1.902 0-3.951-1.02-5.85-2.92z"/>
    <path d="m1590.5 1572c-1.1-0.49-5.88-0.92-10.63-0.96-5.25-0.04-10.03-0.66-12.22-1.57-1.97-0.83-4.94-1.5-6.6-1.5s-5.17-0.5-7.79-1.1c-4.69-1.09-6.4-1.55-23.26-6.33-4.67-1.33-11.42-3.62-15-5.09-3.58-1.48-9.72-3.97-13.67-5.53-9.15-3.62-17.89-8.09-22.27-11.37-1.9-1.42-3.97-2.58-4.6-2.58-0.64 0-2.91-1.26-5.06-2.79-2.14-1.53-5.93-3.97-8.4-5.42-2.47-1.44-7.65-5.12-11.5-8.18s-8.58-6.44-10.5-7.51c-4.18-2.31-34.6-33.12-41-41.52-18.37-24.08-32.53-48.02-38.8-65.58-1.66-4.67-4.59-12.33-6.49-17s-4.44-13-5.65-18.5c-1.2-5.5-2.82-12.25-3.59-15-1.81-6.45-2.37-10.58-3.3-24-0.41-6.05-1.3-11.98-1.96-13.18-0.81-1.47-1.21-7.8-1.21-19.32s0.4-17.85 1.21-19.32c0.66-1.2 1.56-7.13 1.99-13.18 1.13-15.88 2.3-24.06 4.59-32 1.11-3.85 2.71-9.7 3.55-13 2.31-9 5.6-18.43 8.27-23.75 1.32-2.61 2.39-5.48 2.39-6.38 0-0.89 3.53-8.65 7.84-17.24 8.78-17.52 10.99-21.13 21.96-35.99 2.58-3.51 5.62-7.87 6.74-9.71 5.3-8.63 34.15-37.77 47.72-48.18 6.42-4.92 20.17-14.3 27.08-18.46 9.17-5.53 29.69-15.79 31.57-15.79 0.91 0 2.64-0.7 3.85-1.55 2.31-1.61 7.66-3.58 22.74-8.37 4.95-1.57 10.35-3.33 12-3.91 1.65-0.59 5.7-1.56 9-2.17s8.25-1.74 11-2.52c8.13-2.3 17.13-2.77 53.5-2.78 35.95-0.01 44.15 0.43 52.5 2.78 2.75 0.78 7.7 1.91 11 2.52s7.35 1.58 9 2.16 6.83 2.2 11.5 3.6c11.19 3.34 20.56 6.9 25.5 9.69 2.2 1.24 5.48 2.54 7.3 2.89 1.81 0.35 6.45 2.55 10.3 4.89 3.84 2.35 8.74 5.22 10.89 6.39 2.14 1.16 5.9 3.41 8.35 5 2.45 1.58 5.74 3.67 7.31 4.63 4.43 2.73 9.36 6.25 15.29 10.94 7.31 5.78 42.63 40.4 45.71 44.81 3.61 5.16 9.29 12.94 13.99 19.14 2.27 3.01 5.58 8.37 7.36 11.91 1.77 3.55 4.03 7.35 5.02 8.45 3.77 4.2 20.86 45.01 23.03 55 0.47 2.2 1.59 6.47 2.48 9.5 1.58 5.36 2.19 8.49 4.65 24 0.77 4.85 1.19 21.08 1.19 46s-0.42 41.15-1.19 46c-2.6 16.38-3.1 18.8-5.55 27-2.66 8.87-7.83 23.6-11.6 33-2.88 7.18-15.82 33.07-17.5 35-0.72 0.83-2.49 3.75-3.95 6.5s-4.01 6.8-5.67 9-4.3 5.94-5.87 8.31c-6.05 9.1-34.81 39.51-42.04 44.44-2.47 1.69-5.86 4.46-7.52 6.16-1.67 1.7-4.37 3.88-6 4.84-1.64 0.96-4.78 3.11-6.98 4.78-6.52 4.95-11.35 8.25-17.86 12.18-8.29 5.02-25.65 13.79-27.28 13.79-0.72 0-3.8 1.13-6.84 2.5s-7.88 3.56-10.77 4.85c-2.89 1.3-7.72 2.9-10.75 3.56-3.03 0.65-8.2 2.11-11.5 3.23s-8.25 2.4-11 2.84c-10.67 1.72-16.58 2.95-17.76 3.72-3.12 2.01-64.24 4.1-68.24 2.33z"/>
  </g>
</svg>
