<svg inkscape:export-xdpi="96" xmlns:rdf="http://www.w3.org/1999/02/22-rdf-syntax-ns#" inkscape:export-ydpi="96" width="2048" viewBox="0 0 2048 2048" style="fill:none;stroke:none;" xmlns:svg="http://www.w3.org/2000/svg" xmlns:dc="http://purl.org/dc/elements/1.1/" xmlns="http://www.w3.org/2000/svg" xmlns:sodipodi="http://sodipodi.sourceforge.net/DTD/sodipodi-0.dtd" height="2048" xmlns:inkscape="http://www.inkscape.org/namespaces/inkscape" xmlns:cc="http://creativecommons.org/ns#" xmlns:osb="http://www.openswatchbook.org/uri/2009/osb" xmlns:xlink="http://www.w3.org/1999/xlink" version="1.1">
    <defs/>
    <sodipodi:namedview pagecolor="#ffffff" inkscape:pagecheckerboard="true" borderlayer="true" inkscape:document-units="px" bordercolor="#666666"/>
    <title></title>
    <g inkscape:label="Animation" id="MainComposition_2c74a642ebbb47e4ad55f823ff19470b" inkscape:groupmode="layer" wtf="Animation">
        <g transform="matrix(1, 0, 0, 1, 0, 0)" inkscape:label="Traced Image" opacity="1" id="Group_aa05e7f312e646b7b2a2094333b30d28">
            <g transform="matrix(1, 0, 0, 1, 0, 0)" inkscape:label="#0084ff" opacity="1" id="Group_a1ad0c4adaae4c02abf6837f62242d85">
                <g fill-opacity="1" style="" inkscape:label="Fill 2" fill="#0084ff" id="Fill_045ebdd7aa9548dda56ced74f3db2084">
                    <path style="" sodipodi:nodetypes="ccccccccccccccccccccc" d="M 819,1470.46 C 823.125,1468.15 832.462,1463.27 839.75,1459.62 847.038,1455.97 853,1452.84 853,1452.67 853,1452.26 848.438,1439.06 847.527,1436.83 846.922,1435.34 846.035,1435.54 839.7,1438.58 831.807,1442.36 827.637,1442.83 824.097,1440.36 822.65,1439.34 817.629,1430.23 811.013,1416.61 805.108,1404.45 794.333,1383.7 787.067,1370.5 779.801,1357.3 770.885,1340.42 767.253,1333 761.551,1321.34 751.487,1302.29 750.416,1301.12 749.2,1299.79 742.406,1304.63 734.547,1312.44 725.744,1321.18 712,1339.93 712,1343.2 712,1345.64 726.053,1349.45 735.144,1349.48 744.501,1349.5 745.357,1350.15 751.739,1361.96 754.276,1366.66 759.461,1375.9 763.26,1382.5 772.711,1398.92 796.713,1447.69 797.459,1452 798.37,1457.26 795.456,1461.09 787.082,1465.65 783.194,1467.77 780.01,1469.96 780.007,1470.52 780,1471.56 783.369,1476.92 787.707,1482.77 787.707,1482.77 790.131,1486.04 790.131,1486.04 790.131,1486.04 800.816,1480.35 800.816,1480.35 806.692,1477.22 814.875,1472.77 819,1470.46 Z"/>
                    <path style="" sodipodi:nodetypes="ccccccccccccccc" d="M 1111,1353.98 C 1110.17,1353.44 1107.7,1352.5 1105.5,1351.9 1098.07,1349.85 1088.6,1343.45 1083.17,1336.82 1077.26,1329.61 1071.87,1318.95 1070.1,1311 1068.48,1303.73 1069.07,1212.81 1070.78,1205.79 1074.73,1189.56 1091.73,1172.83 1108.8,1168.38 1112.95,1167.3 1124.56,1167 1162.53,1167 1190.75,1167 1212.75,1167.41 1215.24,1167.98 1217.58,1168.53 1220.69,1169.2 1222.15,1169.48 1225.13,1170.05 1238.78,1178.99 1242.68,1182.92 1246.61,1186.88 1252.98,1198.5 1254.57,1204.61 1256.72,1212.85 1256.64,1310.3 1254.49,1317.42 1252.45,1324.13 1244.54,1337.37 1240.67,1340.54 1233.32,1346.56 1229.64,1348.96 1225.69,1350.3 1211.09,1355.23 1214.25,1355 1161.87,1354.98 1131.17,1354.98 1111.93,1354.6 1111,1353.98 Z"/>
                    <path style="" sodipodi:nodetypes="cccccccccccccccccccccccccccccccccccccccccccccc" d="M 1536.87,993.49 C 1535.42,992.704 1533.85,991.259 1533.37,990.28 1532.89,989.301 1532.28,965.1 1532,936.5 1532,936.5 1531.5,884.5 1531.5,884.5 1531.5,884.5 1134.38,884 1134.38,884 1134.38,884 737.254,883.5 737.254,883.5 737.254,883.5 733.377,880.748 733.377,880.748 728.824,877.515 676.29,829.233 671.96,824.302 668.854,820.765 668.129,816.496 670.03,812.945 671.753,809.725 676.431,808 683.436,808 689.767,808 694.021,807.295 704.5,804.512 707.25,803.781 711.975,802.643 715,801.983 722.42,800.365 742.787,789.66 754.366,781.293 760.42,776.918 771.011,766.854 773.617,763 774.918,761.075 777.771,757.025 779.957,754 783.965,748.454 794,729.523 794,727.509 794,726.912 794.917,724.64 796.037,722.461 801.484,711.866 802.184,703.128 802.877,637 803.219,604.275 803.892,576.696 804.371,575.713 806.794,570.743 793.474,571 1049,571 1304.53,571 1291.21,570.743 1293.63,575.713 1294.11,576.696 1294.8,602.25 1295.16,632.5 1295.78,684.677 1296.59,702.032 1298.77,710 1301.94,721.565 1308.28,737.68 1312.74,745.5 1314.3,748.25 1316.47,752.075 1317.54,754 1320.97,760.131 1341.96,780.743 1351.13,786.978 1367.46,798.086 1381.95,804.218 1399,807.231 1406.34,808.528 1433.16,808.782 1440,807.618 1448.86,806.109 1456.59,803.992 1460.48,802.013 1462.65,800.906 1464.93,800 1465.55,800 1467.73,800 1479.59,793.618 1489,787.385 1498.79,780.899 1513.71,766.729 1518.36,759.5 1519.77,757.3 1522.31,753.55 1524,751.167 1531.64,740.379 1541,717.855 1541,710.264 1541,708.603 1541.67,705.629 1542.5,703.654 1543.78,700.599 1544,691.137 1544,640.079 1544,595.702 1544.31,579.412 1545.19,577.472 1547.73,571.905 1546.52,572 1615,572 1683.48,572 1682.27,571.905 1684.81,577.472 1685.72,579.477 1686,627.613 1686,782.097 1686,1003.66 1686.43,988.335 1680.07,990.97 1677.06,992.219 1673.33,992.104 1654.5,990.179 1650.1,989.729 1645.23,988.829 1643.68,988.18 1639.16,986.284 1587,986.556 1582.35,988.5 1580.37,989.325 1576.57,990 1573.89,990 1568.82,990 1562.73,991.143 1554.87,993.569 1548.99,995.383 1540.28,995.345 1536.87,993.49 Z"/>
                    <path style="" sodipodi:nodetypes="cccccccccccccccccccccccccccccccccccccccc" d="M 1595.42,1350.51 C 1593.17,1349.8 1589.79,1348.43 1587.92,1347.47 1583.67,1345.29 1572,1336.74 1572,1335.81 1572,1335.43 1570.25,1333.1 1568.11,1330.62 1565.97,1328.15 1563.55,1324.18 1562.75,1321.81 1557.99,1307.78 1557.85,1306.95 1558.13,1294.94 1558.39,1284.07 1558.24,1282.88 1556.33,1280.79 1555.18,1279.53 1553.5,1277.15 1552.6,1275.5 1551.7,1273.85 1549.39,1270.47 1547.48,1268 1544.46,1264.09 1537.59,1254.28 1530.34,1243.54 1527.45,1239.25 1518.85,1227.45 1515.01,1222.5 1503.48,1207.64 1501,1201.38 1501,1187.16 1501,1177.6 1501.29,1175.81 1503.57,1171.23 1507.38,1163.59 1515.3,1156.8 1522.84,1154.7 1529.5,1152.85 1540.98,1152.46 1545.6,1153.92 1547.2,1154.42 1549.81,1155.12 1551.41,1155.48 1555.34,1156.34 1567.25,1168.01 1571.01,1174.68 1572.68,1177.62 1575.52,1181.71 1577.34,1183.77 1579.16,1185.82 1582.28,1190.22 1584.28,1193.55 1586.27,1196.88 1588.85,1200.46 1590,1201.5 1591.15,1202.54 1593.73,1206.12 1595.74,1209.45 1597.74,1212.78 1602.45,1219.65 1606.2,1224.72 1609.96,1229.78 1613.94,1235.48 1615.06,1237.38 1617.22,1241.05 1622.94,1244.01 1627.77,1243.98 1629.27,1243.97 1635.13,1246.3 1640.78,1249.16 1648.33,1252.98 1652,1255.51 1654.6,1258.68 1654.6,1258.68 1658.13,1263 1658.13,1263 1658.13,1263 1690.82,1263.01 1690.82,1263.01 1723.03,1263.02 1723.57,1263.05 1728.5,1265.37 1731.33,1266.7 1735.93,1270.29 1739.12,1273.65 1745.85,1280.75 1748,1286.82 1748,1298.74 1748,1305.55 1747.58,1307.53 1745.03,1312.59 1740.55,1321.53 1736.75,1325.49 1728.84,1329.44 1728.84,1329.44 1721.73,1333 1721.73,1333 1721.73,1333 1689.07,1333 1689.07,1333 1689.07,1333 1656.42,1333 1656.42,1333 1656.42,1333 1651.96,1337.61 1651.96,1337.61 1648.98,1340.69 1644.21,1343.85 1637.59,1347.11 1637.59,1347.11 1627.68,1352 1627.68,1352 1627.68,1352 1613.59,1351.9 1613.59,1351.9 1605.15,1351.84 1597.86,1351.29 1595.42,1350.51 Z"/>
                    <path style="" sodipodi:nodetypes="ccccccccccccccccccccccccccccc" d="M 295.888,1348.5 C 292.587,1346.71 290.61,1342.05 291.475,1338.11 291.842,1336.44 294.915,1332.06 298.365,1328.3 304.652,1321.43 370.681,1249.77 411.505,1205.5 423.678,1192.3 441.913,1172.5 452.026,1161.5 462.14,1150.5 496.759,1112.94 528.957,1078.02 561.156,1043.11 601.17,999.685 617.878,981.523 634.586,963.36 649.661,947.282 651.378,945.793 655.115,942.552 658.747,941.573 662.184,942.88 665.508,944.144 676.969,954.787 678.04,957.606 678.501,958.817 679.384,968.964 680.002,980.154 681.443,1006.21 683.325,1021.28 685.881,1027.23 686.999,1029.83 688.423,1033.88 689.048,1036.23 690.801,1042.83 701.624,1061.04 708.571,1069.08 712.01,1073.06 720.063,1081.11 726.466,1086.97 732.868,1092.82 738.98,1098.94 740.047,1100.56 743.667,1106.05 742.143,1111.16 735.688,1115.17 726.979,1120.59 647.592,1163.26 644.615,1164.12 638.542,1165.89 636.328,1164.46 619.051,1147.66 609.948,1138.8 600.371,1129.55 597.77,1127.09 597.77,1127.09 593.04,1122.61 593.04,1122.61 593.04,1122.61 590.42,1125.06 590.42,1125.06 585.925,1129.25 576.404,1150.23 573.039,1163.36 571.368,1169.88 570,1175.64 570,1176.16 570,1176.72 574.578,1176.98 581.08,1176.8 592.137,1176.5 592.164,1176.51 594.58,1179.31 599.936,1185.51 596.997,1190.62 584,1197.69 519.483,1232.79 494.185,1246.53 477.5,1255.52 466.5,1261.44 426.45,1283.18 388.5,1303.83 293.422,1355.56 301.606,1351.61 295.888,1348.5 Z"/>
                    <path style="" sodipodi:nodetypes="ccccccccccccccccccccccccccccccccccc" d="M 269.5,1388.29 C 268.4,1388.03 265.7,1386.41 263.5,1384.69 257.08,1379.65 227.688,1352.22 225.523,1349.24 222.834,1345.54 222.976,1340.12 225.859,1336.45 227.131,1334.83 235.025,1326.08 243.4,1317 251.775,1307.92 277.71,1279.8 301.032,1254.5 324.354,1229.2 353.813,1197.25 366.495,1183.5 424.248,1120.88 451.124,1091.71 471.984,1068.99 484.35,1055.52 497.655,1041.13 501.551,1037 505.446,1032.88 518.745,1018.48 531.104,1005 607.014,922.235 649.407,876.841 652.083,875.457 658.294,872.245 658.321,872.265 697.097,907.972 710.519,920.332 724.065,933.033 727.2,936.196 733.699,942.755 734.746,945.919 733.139,954.148 727.3,984.05 734.93,1017.08 753.997,1044.44 758.148,1050.4 769.468,1061.8 777.689,1068.3 785.712,1074.65 788,1077.39 788,1080.68 788,1086.32 785.249,1088.76 769.702,1096.91 757.233,1103.45 755.964,1103.04 738.394,1086.88 721.811,1071.62 715.854,1064.14 705.638,1045.73 702.341,1039.79 699.177,1031.73 694.527,1017.43 692.233,1010.37 690.001,987.691 689.986,971.292 689.986,971.292 689.972,955.5 689.972,955.5 689.972,955.5 674.641,941.552 674.641,941.552 666.208,933.88 658.85,927.45 658.289,927.263 657.727,927.076 647.645,937.377 635.884,950.155 624.123,962.933 582.1,1008.53 542.5,1051.48 502.9,1094.43 446.88,1155.21 418.011,1186.54 389.142,1217.87 359.892,1249.6 353.011,1257.05 346.13,1264.51 330.375,1281.59 318,1295.01 305.625,1308.43 290.901,1324.38 285.28,1330.46 285.28,1330.46 275.06,1341.5 275.06,1341.5 275.06,1341.5 280.773,1347.27 280.773,1347.27 286.116,1352.68 286.485,1353.36 286.466,1357.77 286.438,1364.32 280.677,1382.8 277.796,1385.58 275.217,1388.07 272.463,1388.97 269.5,1388.29 Z"/>
                    <path style="" sodipodi:nodetypes="cccccccccccccccccccccccccccccccccc" d="M 548,1695.8 C 543.145,1692.54 534.559,1675.96 535.442,1671.54 535.776,1669.87 538.708,1659.5 541.958,1648.5 549.399,1623.31 551,1614.53 551,1598.88 551,1584.21 548.575,1571.06 543.441,1557.88 539.743,1548.38 511.265,1495.29 507.416,1490.72 506.087,1489.14 505,1487.41 505,1486.87 505,1484.27 484.861,1465.36 475.568,1459.22 463.655,1451.36 455.166,1447.87 427.539,1439.46 416.01,1435.95 405.448,1432.23 404.066,1431.2 400.394,1428.46 394.034,1416.24 394.016,1411.89 393.996,1407.28 396.86,1404.33 406.357,1399.19 414.854,1394.6 489.907,1353.88 515.5,1339.98 525.4,1334.61 557.35,1317.27 586.5,1301.45 615.65,1285.64 648.725,1267.66 660,1261.5 671.275,1255.33 689.5,1245.45 700.5,1239.53 711.5,1233.61 725.675,1225.95 732,1222.5 798.905,1185.98 861.186,1152.38 864.079,1151.24 869.986,1148.91 873.863,1151.2 879.044,1160.08 884.821,1169.97 884.982,1172.86 880.571,1187.5 871.874,1216.37 869.838,1225.79 869.272,1239.8 868.541,1257.92 870.856,1272 877.149,1287.71 881.215,1297.87 905.696,1343.01 913.351,1354.47 928.274,1376.8 953.339,1394.01 982.5,1401.93 998.909,1406.4 1012.86,1411.1 1015.26,1412.99 1016.62,1414.06 1019.88,1419.17 1022.5,1424.35 1026.52,1432.29 1027.16,1434.32 1026.6,1437.32 1025.48,1443.3 1032.56,1439.07 937.5,1490.55 914.4,1503.05 864.9,1529.94 827.5,1550.29 790.1,1570.64 750.725,1592 740,1597.76 729.275,1603.51 715.325,1611.05 709,1614.5 702.675,1617.95 674.55,1633.25 646.5,1648.49 618.45,1663.73 586.931,1680.87 576.457,1686.58 565.983,1692.3 556.083,1697.23 554.457,1697.56 552.313,1697.98 550.538,1697.5 548,1695.8 Z"/>
                    <path style="" sodipodi:nodetypes="cccccccccccccccccccccccc" d="M 996.096,1122.95 C 990.796,1119.12 937.368,1069.95 934,1065.81 932.625,1064.13 929.241,1058.64 926.479,1053.62 926.479,1053.62 921.458,1044.5 921.458,1044.5 921.458,1044.5 913.479,1041.73 913.479,1041.73 909.091,1040.21 901.179,1037.84 895.897,1036.46 895.897,1036.46 886.294,1033.96 886.294,1033.96 886.294,1033.96 880.897,1036.47 880.897,1036.47 877.361,1038.11 873.733,1038.98 870.376,1038.99 867.557,1039 863.338,1039.67 861,1040.5 854.228,1042.89 848.75,1042.48 845.616,1039.34 844.155,1037.88 842.717,1035.72 842.421,1034.54 841.586,1031.21 842.62,992.055 843.676,987 845.236,979.533 851.706,968.47 857.733,962.961 864.756,956.543 870.46,953.242 880.448,949.817 880.448,949.817 888.5,947.056 888.5,947.056 888.5,947.056 935.366,947.028 935.366,947.028 974.659,947.005 982.98,947.246 986.866,948.52 989.415,949.357 994.037,950.724 997.138,951.559 1008.35,954.577 1020.35,966.167 1025.9,979.345 1025.9,979.345 1028.5,985.5 1028.5,985.5 1028.5,985.5 1028.78,1039.38 1028.78,1039.38 1029.1,1099.69 1029.2,1098.68 1022,1111 1018.46,1117.06 1013.49,1122.08 1008.32,1124.84 1004.63,1126.8 1000.53,1126.17 996.096,1122.95 Z"/>
                    <path style="" sodipodi:nodetypes="cccccccccccccccccccccccccc" d="M 1401,778.093 C 1400.17,777.603 1396.35,776.422 1392.5,775.47 1384.29,773.439 1374.71,768.799 1367,763.124 1363.97,760.897 1359.16,757.502 1356.3,755.58 1353.44,753.659 1350.34,750.604 1349.41,748.793 1348.49,746.982 1346.17,743.76 1344.26,741.633 1340.73,737.69 1331.93,720.134 1329.41,712 1328.65,709.525 1328.02,705.348 1328.01,702.718 1328,700.088 1327.33,696.32 1326.5,694.346 1325.2,691.239 1325,677.778 1325,594.312 1325,522.599 1325.3,497.308 1326.17,495.684 1326.81,494.483 1327.69,490.125 1328.13,486 1329.33,474.592 1330.27,471.417 1335.99,459.538 1340.81,449.508 1342.21,447.607 1352.38,437.181 1362.89,426.406 1364.15,425.457 1375.5,419.755 1382.1,416.438 1388.85,413.307 1390.5,412.795 1404.39,408.494 1436.58,408.493 1450.5,412.793 1454.32,413.974 1465.79,419.773 1473.34,424.34 1481.3,429.163 1495.71,443.958 1500.81,452.56 1504.98,459.586 1508.87,468.426 1511.56,477 1512.75,480.766 1512.98,499.78 1512.99,593.601 1513,673.027 1512.68,706.692 1511.89,709.101 1509.51,716.386 1505.59,725.827 1501.95,733 1498.94,738.946 1496.02,742.591 1487.83,750.591 1473.02,765.061 1463.11,771.259 1447,776.124 1440.6,778.057 1436.79,778.433 1421,778.687 1410.83,778.851 1401.83,778.584 1401,778.093 Z"/>
                    <path style="" sodipodi:nodetypes="ccccccccccccc" d="M 1104.14,1134.04 C 1096.83,1131.55 1090.06,1126.62 1082.95,1118.6 1076.21,1111.01 1072.51,1104.39 1070.72,1096.72 1069.03,1089.49 1069.02,995.934 1070.71,987.761 1073.95,972.022 1091.71,954.06 1107.28,950.766 1115.13,949.105 1205.9,948.521 1213,950.086 1224.87,952.703 1229.42,954.039 1231.42,955.499 1232.56,956.336 1235.08,958.088 1237,959.391 1241.67,962.552 1243.85,965.169 1248.8,973.529 1256.15,985.936 1255.98,984.325 1255.98,1042.5 1255.98,1099.19 1256.09,1097.94 1250.02,1109.96 1245.71,1118.5 1239.28,1125.08 1230.99,1129.44 1218.21,1136.15 1219.98,1135.98 1162,1135.92 1113.9,1135.86 1109.05,1135.71 1104.14,1134.04 Z"/>
                    <path style="" sodipodi:nodetypes="cccccccccc" d="M 1017.5,1306.25 C 1016.4,1305.98 1010.55,1302.48 1004.5,1298.47 991.064,1289.58 979.63,1278.32 978.098,1272.47 975.44,1262.33 974.168,1251.49 974.206,1239.32 974.255,1223.39 973.832,1224.28 989.945,1206.5 1005.96,1188.84 1008.13,1187 1012.96,1187 1020.86,1187 1023.89,1190.14 1027.39,1201.93 1028.77,1206.58 1029,1214.01 1029,1253.67 1029,1253.67 1029,1299.97 1029,1299.97 1029,1299.97 1026.25,1302.91 1026.25,1302.91 1023.31,1306.05 1020.71,1307.04 1017.5,1306.25 Z"/>
                    <path style="" sodipodi:nodetypes="cccccccccccccccccccccccccccccccccccccc" d="M 529.5,1761.16 C 527.85,1760.15 525.992,1758.69 525.37,1757.91 522.635,1754.49 478.955,1673.01 478.46,1670.4 478.094,1668.47 478.598,1666.33 479.963,1664 492.117,1643.29 498.554,1619.12 497.625,1597.7 496.239,1565.72 483.994,1538.73 460.79,1516.5 451.791,1507.88 447.83,1504.87 435.5,1497.27 431.272,1494.66 414.121,1488.58 406,1486.8 401.325,1485.78 393.326,1484.58 388.225,1484.13 379.931,1483.41 378.633,1483.02 375.952,1480.45 373.256,1477.87 364.128,1461.67 337.633,1412.47 327.795,1394.2 327.03,1390.77 331.75,1386.16 333.262,1384.68 344.85,1377.88 357.5,1371.05 370.15,1364.22 400.75,1347.64 425.5,1334.2 450.25,1320.75 499.75,1293.9 535.5,1274.51 571.25,1255.13 631.775,1222.28 670,1201.52 708.225,1180.76 745.35,1160.61 752.5,1156.74 768.666,1148 774.993,1144.56 834.542,1112.17 860.965,1097.79 883.915,1085.77 885.542,1085.44 890.079,1084.54 894.577,1088.27 899.495,1097 915.167,1124.83 940.182,1172.35 940.63,1175.14 941.04,1177.69 940.402,1179.94 937.972,1184.5 936.214,1187.8 934.407,1191.63 933.957,1193 933.508,1194.38 931.73,1198.88 930.006,1203 928.283,1207.13 925.854,1215.9 924.608,1222.5 922.626,1233 922.435,1236.19 923.073,1248 923.917,1263.6 926.605,1276.65 931.012,1286.55 942.279,1311.83 955.319,1328.01 974.5,1340.5 992.768,1352.4 1010.92,1358.71 1033.36,1360.98 1039.67,1361.61 1041.68,1362.24 1043.54,1364.14 1044.82,1365.44 1052.69,1379.1 1061.03,1394.5 1069.37,1409.9 1079.75,1429.05 1084.1,1437.05 1088.44,1445.05 1092,1452.79 1092,1454.25 1092,1459.13 1089.77,1462.05 1083.06,1465.94 1077.71,1469.03 983.657,1520.18 893.5,1569.02 883.6,1574.38 852.55,1591.25 824.5,1606.5 796.45,1621.76 764.95,1638.86 754.5,1644.52 695.395,1676.5 635.209,1709.15 596,1730.5 528.313,1767.37 534.779,1764.39 529.5,1761.16 Z"/>
                    <path style="" sodipodi:nodetypes="cccccccccccccccccccc" d="M 659.5,775.989 C 657.85,775.546 654.025,774.63 651,773.954 645.259,772.672 634.698,767.735 624.541,761.586 608.273,751.737 592.704,728.877 586.684,706 585.277,700.653 584.978,486.095 586.368,479.5 588.275,470.457 597.056,451.745 602.932,444.204 608.994,436.424 614.719,430.663 618.716,428.321 621.072,426.94 623,425.38 623,424.855 623,423.671 631.476,419.349 640.187,414.904 648.824,410.498 657.035,409.009 676.5,408.318 692.875,407.737 699.234,408.824 717.129,415.265 727.244,418.906 745.098,431.877 750.592,439.576 753.017,442.976 755.717,446.35 756.591,447.075 759.146,449.196 767.616,467.005 768.921,473 769.579,476.025 770.767,480.585 771.559,483.134 773.713,490.06 773.713,693.94 771.559,700.866 770.767,703.415 769.606,707.975 768.981,711 767.759,716.91 759.712,733.937 755.02,740.541 748.974,749.049 735.814,760.275 724.839,766.286 715.046,771.649 711.611,772.913 698.736,775.896 693.334,777.148 664.066,777.217 659.5,775.989 Z"/>
                    <path style="" sodipodi:nodetypes="cccccccccccccccccccccccccccccccccccc" d="M 568.787,1700.16 C 588.527,1689.4 605.409,1680.24 641,1660.98 647.875,1657.26 703,1627.35 763.5,1594.5 871.12,1536.07 950.869,1492.8 1010,1460.76 1026.22,1451.97 1040.06,1444.25 1040.74,1443.61 1041.72,1442.69 1039.97,1438.71 1032.55,1424.97 1019.59,1400.99 1019.75,1401.22 1015.27,1400.47 1006.19,1398.95 984.438,1392.26 971.681,1387.07 950.815,1378.58 927.108,1358.94 914.858,1340 908.606,1330.33 895.167,1305.98 891.956,1298.5 890.775,1295.75 888.982,1291.7 887.973,1289.5 886.963,1287.3 884.915,1279.65 883.422,1272.5 879.763,1254.97 879.279,1235.85 882.132,1221.5 884.67,1208.73 889.428,1191.67 893.219,1181.74 893.219,1181.74 896.182,1173.98 896.182,1173.98 896.182,1173.98 885.995,1154.99 885.995,1154.99 880.393,1144.55 875.34,1136 874.766,1136 874.192,1136 868.498,1138.87 862.111,1142.39 855.725,1145.9 833.625,1157.89 813,1169.03 792.375,1180.17 757.95,1198.84 736.5,1210.51 700.025,1230.36 686.043,1237.95 626,1270.46 613.075,1277.46 594.4,1287.59 584.5,1292.97 574.6,1298.35 548.05,1312.77 525.5,1325.01 502.95,1337.25 480.675,1349.38 476,1351.95 471.325,1354.53 447.587,1367.39 423.25,1380.54 398.913,1393.69 379,1404.73 379,1405.09 379,1405.44 383.458,1414 388.907,1424.11 388.907,1424.11 398.814,1442.5 398.814,1442.5 398.814,1442.5 404.657,1443.79 404.657,1443.79 443.971,1452.51 467.589,1464.08 489.044,1485.15 500.802,1496.69 506.517,1504.8 518.53,1527 535.726,1558.77 539.508,1572.22 539.487,1601.5 539.475,1619.02 539.375,1619.88 535.794,1633.5 533.77,1641.2 530.482,1652.22 528.488,1658 526.494,1663.78 524.629,1669.44 524.344,1670.59 523.79,1672.83 544.418,1712 546.152,1712 546.659,1712 556.845,1706.67 568.787,1700.16 Z"/>
                    <path style="" sodipodi:nodetypes="cccccccccccccccccccccc" d="M 686.993,1498.59 C 686.99,1497.99 683.351,1491.42 678.908,1484 668.731,1466.99 665.999,1461.65 666.004,1458.78 666.013,1453.3 669.154,1450.79 691.343,1438.56 714.752,1425.65 714.051,1426.32 711.947,1418.75 710.932,1415.09 709.372,1414.1 707.45,1415.88 706.927,1416.37 696.579,1421.77 684.454,1427.88 660.466,1439.98 657.207,1440.89 652.613,1436.75 650.227,1434.6 634.719,1409.67 631.274,1402.45 630.369,1400.55 629.214,1399 628.707,1399 627.447,1399 615,1408.97 615,1409.98 615,1410.42 618.611,1417.7 623.024,1426.14 632.979,1445.2 633.778,1447.6 631.581,1451.84 629.516,1455.84 626.92,1457.46 601.592,1470.54 601.592,1470.54 580.931,1481.21 580.931,1481.21 580.931,1481.21 584.57,1487.85 584.57,1487.85 586.572,1491.51 588.349,1494.65 588.52,1494.83 588.69,1495.01 594.831,1491.81 602.165,1487.72 609.499,1483.62 620.345,1477.73 626.266,1474.64 644.447,1465.12 643.314,1464.26 663.938,1503.19 663.938,1503.19 667.482,1509.88 667.482,1509.88 667.482,1509.88 677.241,1504.78 677.241,1504.78 682.609,1501.97 686.997,1499.18 686.993,1498.59 Z"/>
                    <path style="" sodipodi:nodetypes="ccccccccccccccccccccccccccccccccccccccccccccccccccccccccccccccccccccccccccccc" d="M 1587,1469.5 C 1587.55,1457.43 1588.41,1455.36 1595.42,1449.21 1599.17,1445.91 1607.65,1443 1613.5,1443 1619.42,1443 1627.85,1445.93 1631.73,1449.33 1637.66,1454.54 1639.98,1460.88 1639.99,1471.87 1639.99,1471.87 1640,1481.25 1640,1481.25 1640,1481.25 1645.25,1480.64 1645.25,1480.64 1661.24,1478.8 1662.66,1478.41 1679,1471.5 1682.03,1470.22 1686.53,1468.46 1689,1467.59 1694.38,1465.68 1713.87,1454.46 1719.5,1450.03 1721.7,1448.3 1725.15,1445.67 1727.17,1444.19 1736.95,1437.02 1741.88,1432.86 1746,1428.27 1751.57,1422.08 1761.98,1409.43 1764,1406.42 1764.83,1405.18 1766.98,1402.06 1768.78,1399.49 1770.59,1396.91 1773.19,1392.71 1774.57,1390.15 1775.95,1387.59 1777.99,1384.05 1779.12,1382.27 1783.52,1375.31 1791.27,1355.08 1793.02,1346 1793.49,1343.53 1794.86,1338.02 1796.05,1333.76 1797.24,1329.5 1797.96,1325.34 1797.64,1324.51 1797.18,1323.3 1795.01,1323 1786.65,1323 1777.23,1323 1775.71,1322.73 1770.86,1320.24 1766.43,1317.95 1765.02,1316.53 1762.75,1312.06 1760.4,1307.43 1760,1305.42 1760,1298.26 1760,1287.21 1762.42,1281.32 1768.88,1276.62 1776.92,1270.77 1779.19,1270 1788.39,1270 1793.06,1270 1797.1,1269.65 1797.36,1269.22 1797.88,1268.38 1796.64,1262.15 1794.53,1255 1793.8,1252.53 1792.66,1248.03 1792,1245 1791.33,1241.97 1789.76,1237.03 1788.49,1234 1783.35,1221.67 1777.72,1209.63 1775.19,1205.55 1773.71,1203.17 1770.53,1198 1768.11,1194.07 1765.7,1190.14 1762.89,1186.48 1761.87,1185.93 1760.85,1185.39 1759.3,1183.49 1758.41,1181.72 1756.29,1177.48 1734.88,1155.78 1728.5,1151.41 1725.75,1149.52 1721.7,1146.62 1719.5,1144.97 1717.3,1143.31 1713.25,1140.79 1710.5,1139.37 1707.75,1137.94 1704.6,1135.97 1703.5,1134.99 1697.64,1129.73 1669.87,1118.94 1654.5,1115.95 1651.2,1115.3 1646.86,1114.18 1644.86,1113.44 1642.86,1112.71 1640.95,1112.38 1640.61,1112.72 1640.28,1113.06 1640,1117.79 1640,1123.23 1640,1128.77 1639.49,1134.09 1638.85,1135.32 1637.22,1138.39 1628.16,1148.26 1625.62,1149.71 1624.38,1150.43 1619.58,1150.94 1614,1150.95 1605.12,1150.97 1604.11,1150.76 1598.5,1147.69 1593.5,1144.94 1592.04,1143.5 1589.75,1139.02 1587.28,1134.2 1587,1132.59 1587,1123.49 1587,1117.9 1586.72,1113.05 1586.37,1112.71 1586.03,1112.36 1584.17,1112.74 1582.25,1113.54 1580.33,1114.34 1577.35,1115 1575.63,1115 1572.64,1115 1565.86,1116.97 1550.5,1122.29 1538.7,1126.39 1524.5,1133.53 1513.93,1140.68 1508.39,1144.43 1502.26,1148.47 1500.3,1149.65 1494.03,1153.42 1469.22,1179.01 1462.14,1189 1455.17,1198.84 1442.19,1223.32 1438.82,1232.97 1431.86,1252.95 1428.21,1266.91 1429.43,1268.88 1429.85,1269.56 1433.43,1270 1438.6,1270 1445.24,1270 1447.99,1270.46 1451.29,1272.11 1462.64,1277.81 1466.97,1284.57 1466.99,1296.59 1467,1302.65 1466.52,1304.62 1463.75,1310.02 1461.53,1314.34 1459.13,1317.31 1456.16,1319.42 1452.08,1322.31 1451.13,1322.53 1440.66,1323 1440.66,1323 1429.5,1323.5 1429.5,1323.5 1429.5,1323.5 1429.18,1326.84 1429.18,1326.84 1429,1328.68 1430.02,1333.77 1431.43,1338.15 1432.84,1342.54 1434.01,1347.11 1434.02,1348.31 1434.04,1349.52 1435.2,1353.2 1436.61,1356.5 1438.02,1359.8 1439.77,1364.35 1440.5,1366.62 1444.13,1377.87 1458.01,1401.53 1466.95,1411.68 1469.18,1414.21 1471,1416.73 1471,1417.28 1471,1419.06 1489.4,1437.13 1493.22,1439.1 1495.26,1440.15 1497.37,1441.82 1497.9,1442.81 1499.46,1445.72 1517.45,1457.27 1531.54,1464.4 1544.06,1470.74 1553.2,1474.35 1565,1477.62 1568.03,1478.45 1571.85,1479.52 1573.5,1479.99 1575.15,1480.46 1578.75,1480.76 1581.5,1480.67 1581.5,1480.67 1586.5,1480.5 1586.5,1480.5 1586.5,1480.5 1587,1469.5 1587,1469.5 Z"/>
                    <path style="" sodipodi:nodetypes="cccccccccccccccccccccccc" d="M 1008.92,1570.08 C 1005.32,1566.48 1005.07,1562.16 1008.25,1558.57 1009.49,1557.18 1035.25,1542.61 1065.5,1526.2 1095.75,1509.79 1123.31,1494.82 1126.75,1492.93 1131.92,1490.09 1133.24,1488.81 1134.45,1485.5 1136.99,1478.55 1143,1457.13 1143,1455.04 1143,1453.93 1140.04,1447.34 1136.42,1440.39 1129.1,1426.32 1128.9,1424.51 1134.07,1419.73 1134.07,1419.73 1137.07,1416.97 1137.07,1416.97 1137.07,1416.97 1229.86,1417.23 1229.86,1417.23 1229.86,1417.23 1322.66,1417.5 1322.66,1417.5 1322.66,1417.5 1326.35,1420.32 1326.35,1420.32 1328.98,1422.32 1331.54,1426.11 1335.15,1433.32 1346.42,1455.82 1365.01,1484.33 1375.89,1495.79 1378.85,1498.91 1382.97,1503.72 1385.04,1506.48 1389.7,1512.69 1400.84,1523.49 1407.5,1528.24 1410.25,1530.21 1413.52,1533.2 1414.77,1534.89 1416.01,1536.58 1418.49,1538.71 1420.27,1539.62 1423.32,1541.18 1425.13,1542.57 1435.16,1551 1440.02,1555.09 1443.36,1561.73 1442.42,1565.46 1442.07,1566.86 1440.45,1569.13 1438.81,1570.5 1438.81,1570.5 1435.85,1573 1435.85,1573 1435.85,1573 1223.85,1573 1223.85,1573 1223.85,1573 1011.85,1573 1011.85,1573 1011.85,1573 1008.92,1570.08 1008.92,1570.08 Z"/>
                    <path style="" sodipodi:nodetypes="cccccccccccccccccccccccccccc" d="M 1325,1129.82 C 1320.88,1127.58 1316.02,1124.46 1314.22,1122.88 1312.41,1121.29 1310.54,1120 1310.06,1120 1309.59,1120 1308.26,1118.54 1307.1,1116.75 1305.95,1114.96 1304.1,1112.15 1302.99,1110.5 1301.88,1108.85 1300.08,1104.53 1298.99,1100.89 1297.11,1094.67 1297,1091.29 1297,1042.5 1297,993.706 1297.11,990.334 1298.99,984.108 1300.08,980.474 1301.77,976.323 1302.74,974.884 1303.71,973.446 1305.68,970.521 1307.12,968.384 1309.98,964.143 1311.72,962.423 1317.01,958.604 1322.86,954.38 1325.17,953.361 1334,951.106 1342.26,948.996 1343.89,948.944 1391.5,949.282 1423.79,949.511 1442.11,950.021 1445.21,950.777 1457.44,953.758 1470.75,964.295 1477.28,976.176 1481.95,984.664 1483,988.94 1483.63,1002 1484.23,1014.43 1483.08,1016.43 1472.11,1021.95 1467.73,1024.15 1463.86,1026.42 1463.5,1027 1463.15,1027.57 1460.3,1029.41 1457.18,1031.08 1447.23,1036.4 1439.35,1041.37 1433.51,1046 1430.39,1048.47 1425.42,1052.3 1422.47,1054.5 1419.52,1056.7 1414.72,1060.36 1411.81,1062.64 1404.38,1068.44 1378.38,1095.04 1377.58,1097.66 1377.22,1098.85 1375.36,1101.01 1373.46,1102.46 1371.56,1103.92 1369.27,1106.54 1368.39,1108.3 1367.5,1110.06 1365.54,1112.85 1364.04,1114.5 1362.53,1116.15 1359.35,1120.57 1356.97,1124.32 1351.64,1132.7 1349.28,1134.02 1339.8,1133.94 1333.22,1133.89 1331.76,1133.48 1325,1129.82 Z"/>
                    <path style="" sodipodi:nodetypes="ccccccccccccccccccccccccccccc" d="M 417.923,1048.08 C 417.923,1048.08 415,1045.15 415,1045.15 415,1045.15 415,812.124 415,812.124 415,633.584 415.279,578.481 416.195,576.472 418.727,570.914 417.655,571 484.5,571 551.345,571 550.273,570.914 552.805,576.472 553.687,578.408 554,594.119 554,636.482 554,677.502 554.329,694.673 555.152,696.685 555.786,698.233 556.638,701.75 557.045,704.5 559.101,718.383 560.278,722.115 566.671,735 576.282,754.37 590.746,773.552 599.067,777.963 601.029,779.003 603.258,780.606 604.021,781.526 605.892,783.78 620.942,793.534 624.031,794.493 625.389,794.916 628.975,796.48 632,797.971 635.025,799.462 639.75,801.232 642.5,801.904 645.25,802.577 649.75,803.761 652.5,804.536 655.25,805.31 658.749,806.193 660.275,806.497 666.018,807.643 669.217,813.647 666.972,819.067 664.928,824.002 661.021,825.375 647.752,825.818 647.752,825.818 636.004,826.211 636.004,826.211 636.004,826.211 611.861,852.355 611.861,852.355 598.582,866.735 586.226,879.57 584.404,880.877 582.27,882.409 579.029,883.476 575.296,883.877 575.296,883.877 569.5,884.5 569.5,884.5 569.5,884.5 568.82,891.375 568.82,891.375 568.347,896.163 567.436,899.24 565.82,901.507 564.544,903.297 535.385,935.261 501.021,972.537 466.658,1009.81 437.675,1041.42 436.614,1042.76 433.424,1046.82 426.905,1051 423.773,1051 421.871,1051 419.822,1049.98 417.923,1048.08 Z"/>
                    <path style="" sodipodi:nodetypes="cccccccccccccccccccccccccccccccccccccccccccccccccccccccccccccccccccccccccccccc" d="M 1590.5,1572.03 C 1589.4,1571.54 1584.62,1571.11 1579.87,1571.07 1574.62,1571.03 1569.84,1570.41 1567.65,1569.5 1565.68,1568.67 1562.71,1568 1561.05,1568 1559.39,1568 1555.88,1567.5 1553.26,1566.9 1548.57,1565.81 1546.86,1565.35 1530,1560.57 1525.33,1559.24 1518.58,1556.95 1515,1555.48 1511.42,1554 1505.28,1551.51 1501.33,1549.95 1492.18,1546.33 1483.44,1541.86 1479.06,1538.58 1477.16,1537.16 1475.09,1536 1474.46,1536 1473.82,1536 1471.55,1534.74 1469.4,1533.21 1467.26,1531.68 1463.47,1529.24 1461,1527.79 1458.53,1526.35 1453.35,1522.67 1449.5,1519.61 1445.65,1516.55 1440.92,1513.17 1439,1512.1 1434.82,1509.79 1404.4,1478.98 1398,1470.58 1379.63,1446.5 1365.47,1422.56 1359.2,1405 1357.54,1400.33 1354.61,1392.67 1352.71,1388 1350.81,1383.33 1348.27,1375 1347.06,1369.5 1345.86,1364 1344.24,1357.25 1343.47,1354.5 1341.66,1348.05 1341.1,1343.92 1340.17,1330.5 1339.76,1324.45 1338.87,1318.52 1338.21,1317.32 1337.4,1315.85 1337,1309.52 1337,1298 1337,1286.48 1337.4,1280.15 1338.21,1278.68 1338.87,1277.48 1339.77,1271.55 1340.2,1265.5 1341.33,1249.62 1342.5,1241.44 1344.79,1233.5 1345.9,1229.65 1347.5,1223.8 1348.34,1220.5 1350.65,1211.5 1353.94,1202.07 1356.61,1196.75 1357.93,1194.14 1359,1191.27 1359,1190.37 1359,1189.48 1362.53,1181.72 1366.84,1173.13 1375.62,1155.61 1377.83,1152 1388.8,1137.14 1391.38,1133.63 1394.42,1129.27 1395.54,1127.43 1400.84,1118.8 1429.69,1089.66 1443.26,1079.25 1449.68,1074.33 1463.43,1064.95 1470.34,1060.79 1479.51,1055.26 1500.03,1045 1501.91,1045 1502.82,1045 1504.55,1044.3 1505.76,1043.45 1508.07,1041.84 1513.42,1039.87 1528.5,1035.08 1533.45,1033.51 1538.85,1031.75 1540.5,1031.17 1542.15,1030.58 1546.2,1029.61 1549.5,1029 1552.8,1028.39 1557.75,1027.26 1560.5,1026.48 1568.63,1024.18 1577.63,1023.71 1614,1023.7 1649.95,1023.69 1658.15,1024.13 1666.5,1026.48 1669.25,1027.26 1674.2,1028.39 1677.5,1029 1680.8,1029.61 1684.85,1030.58 1686.5,1031.16 1688.15,1031.74 1693.33,1033.36 1698,1034.76 1709.19,1038.1 1718.56,1041.66 1723.5,1044.45 1725.7,1045.69 1728.98,1046.99 1730.8,1047.34 1732.61,1047.69 1737.25,1049.89 1741.1,1052.23 1744.94,1054.58 1749.84,1057.45 1751.99,1058.62 1754.13,1059.78 1757.89,1062.03 1760.34,1063.62 1762.79,1065.2 1766.08,1067.29 1767.65,1068.25 1772.08,1070.98 1777.01,1074.5 1782.94,1079.19 1790.25,1084.97 1825.57,1119.59 1828.65,1124 1832.26,1129.16 1837.94,1136.94 1842.64,1143.14 1844.91,1146.15 1848.22,1151.51 1850,1155.05 1851.77,1158.6 1854.03,1162.4 1855.02,1163.5 1858.79,1167.7 1875.88,1208.51 1878.05,1218.5 1878.52,1220.7 1879.64,1224.97 1880.53,1228 1882.11,1233.36 1882.72,1236.49 1885.18,1252 1885.95,1256.85 1886.37,1273.08 1886.37,1298 1886.37,1322.92 1885.95,1339.15 1885.18,1344 1882.58,1360.38 1882.08,1362.8 1879.63,1371 1876.97,1379.87 1871.8,1394.6 1868.03,1404 1865.15,1411.18 1852.21,1437.07 1850.53,1439 1849.81,1439.83 1848.04,1442.75 1846.58,1445.5 1845.12,1448.25 1842.57,1452.3 1840.91,1454.5 1839.25,1456.7 1836.61,1460.44 1835.04,1462.81 1828.99,1471.91 1800.23,1502.32 1793,1507.25 1790.53,1508.94 1787.14,1511.71 1785.48,1513.41 1783.81,1515.11 1781.11,1517.29 1779.48,1518.25 1777.84,1519.21 1774.7,1521.36 1772.5,1523.03 1765.98,1527.98 1761.15,1531.28 1754.64,1535.21 1746.35,1540.23 1728.99,1549 1727.36,1549 1726.64,1549 1723.56,1550.13 1720.52,1551.5 1717.48,1552.87 1712.64,1555.06 1709.75,1556.35 1706.86,1557.65 1702.03,1559.25 1699,1559.91 1695.97,1560.56 1690.8,1562.02 1687.5,1563.14 1684.2,1564.26 1679.25,1565.54 1676.5,1565.98 1665.83,1567.7 1659.92,1568.93 1658.74,1569.7 1655.62,1571.71 1594.5,1573.8 1590.5,1572.03 Z"/>
                </g>
                <g stroke-width="1" style="fill:none;stroke-dasharray:none;stroke-linecap:round;stroke-linejoin:round;" inkscape:label="Stroke 2" stroke-opacity="1" stroke="#0084ff" id="Stroke_39fce1c3351e4f2d86de086604507ff7">
                    <path style="fill:none;stroke-dasharray:none;stroke-linecap:round;stroke-linejoin:round;" sodipodi:nodetypes="ccccccccccccccccccccc" d="M 819,1470.46 C 823.125,1468.15 832.462,1463.27 839.75,1459.62 847.038,1455.97 853,1452.84 853,1452.67 853,1452.26 848.438,1439.06 847.527,1436.83 846.922,1435.34 846.035,1435.54 839.7,1438.58 831.807,1442.36 827.637,1442.83 824.097,1440.36 822.65,1439.34 817.629,1430.23 811.013,1416.61 805.108,1404.45 794.333,1383.7 787.067,1370.5 779.801,1357.3 770.885,1340.42 767.253,1333 761.551,1321.34 751.487,1302.29 750.416,1301.12 749.2,1299.79 742.406,1304.63 734.547,1312.44 725.744,1321.18 712,1339.93 712,1343.2 712,1345.64 726.053,1349.45 735.144,1349.48 744.501,1349.5 745.357,1350.15 751.739,1361.96 754.276,1366.66 759.461,1375.9 763.26,1382.5 772.711,1398.92 796.713,1447.69 797.459,1452 798.37,1457.26 795.456,1461.09 787.082,1465.65 783.194,1467.77 780.01,1469.96 780.007,1470.52 780,1471.56 783.369,1476.92 787.707,1482.77 787.707,1482.77 790.131,1486.04 790.131,1486.04 790.131,1486.04 800.816,1480.35 800.816,1480.35 806.692,1477.22 814.875,1472.77 819,1470.46 Z"/>
                    <path style="fill:none;stroke-dasharray:none;stroke-linecap:round;stroke-linejoin:round;" sodipodi:nodetypes="ccccccccccccccc" d="M 1111,1353.98 C 1110.17,1353.44 1107.7,1352.5 1105.5,1351.9 1098.07,1349.85 1088.6,1343.45 1083.17,1336.82 1077.26,1329.61 1071.87,1318.95 1070.1,1311 1068.48,1303.73 1069.07,1212.81 1070.78,1205.79 1074.73,1189.56 1091.73,1172.83 1108.8,1168.38 1112.95,1167.3 1124.56,1167 1162.53,1167 1190.75,1167 1212.75,1167.41 1215.24,1167.98 1217.58,1168.53 1220.69,1169.2 1222.15,1169.48 1225.13,1170.05 1238.78,1178.99 1242.68,1182.92 1246.61,1186.88 1252.98,1198.5 1254.57,1204.61 1256.72,1212.85 1256.64,1310.3 1254.49,1317.42 1252.45,1324.13 1244.54,1337.37 1240.67,1340.54 1233.32,1346.56 1229.64,1348.96 1225.69,1350.3 1211.09,1355.23 1214.25,1355 1161.87,1354.98 1131.17,1354.98 1111.93,1354.6 1111,1353.98 Z"/>
                    <path style="fill:none;stroke-dasharray:none;stroke-linecap:round;stroke-linejoin:round;" sodipodi:nodetypes="cccccccccccccccccccccccccccccccccccccccccccccc" d="M 1536.87,993.49 C 1535.42,992.704 1533.85,991.259 1533.37,990.28 1532.89,989.301 1532.28,965.1 1532,936.5 1532,936.5 1531.5,884.5 1531.5,884.5 1531.5,884.5 1134.38,884 1134.38,884 1134.38,884 737.254,883.5 737.254,883.5 737.254,883.5 733.377,880.748 733.377,880.748 728.824,877.515 676.29,829.233 671.96,824.302 668.854,820.765 668.129,816.496 670.03,812.945 671.753,809.725 676.431,808 683.436,808 689.767,808 694.021,807.295 704.5,804.512 707.25,803.781 711.975,802.643 715,801.983 722.42,800.365 742.787,789.66 754.366,781.293 760.42,776.918 771.011,766.854 773.617,763 774.918,761.075 777.771,757.025 779.957,754 783.965,748.454 794,729.523 794,727.509 794,726.912 794.917,724.64 796.037,722.461 801.484,711.866 802.184,703.128 802.877,637 803.219,604.275 803.892,576.696 804.371,575.713 806.794,570.743 793.474,571 1049,571 1304.53,571 1291.21,570.743 1293.63,575.713 1294.11,576.696 1294.8,602.25 1295.16,632.5 1295.78,684.677 1296.59,702.032 1298.77,710 1301.94,721.565 1308.28,737.68 1312.74,745.5 1314.3,748.25 1316.47,752.075 1317.54,754 1320.97,760.131 1341.96,780.743 1351.13,786.978 1367.46,798.086 1381.95,804.218 1399,807.231 1406.34,808.528 1433.16,808.782 1440,807.618 1448.86,806.109 1456.59,803.992 1460.48,802.013 1462.65,800.906 1464.93,800 1465.55,800 1467.73,800 1479.59,793.618 1489,787.385 1498.79,780.899 1513.71,766.729 1518.36,759.5 1519.77,757.3 1522.31,753.55 1524,751.167 1531.64,740.379 1541,717.855 1541,710.264 1541,708.603 1541.67,705.629 1542.5,703.654 1543.78,700.599 1544,691.137 1544,640.079 1544,595.702 1544.31,579.412 1545.19,577.472 1547.73,571.905 1546.52,572 1615,572 1683.48,572 1682.27,571.905 1684.81,577.472 1685.72,579.477 1686,627.613 1686,782.097 1686,1003.66 1686.43,988.335 1680.07,990.97 1677.06,992.219 1673.33,992.104 1654.5,990.179 1650.1,989.729 1645.23,988.829 1643.68,988.18 1639.16,986.284 1587,986.556 1582.35,988.5 1580.37,989.325 1576.57,990 1573.89,990 1568.82,990 1562.73,991.143 1554.87,993.569 1548.99,995.383 1540.28,995.345 1536.87,993.49 Z"/>
                    <path style="fill:none;stroke-dasharray:none;stroke-linecap:round;stroke-linejoin:round;" sodipodi:nodetypes="cccccccccccccccccccccccccccccccccccccccc" d="M 1595.42,1350.51 C 1593.17,1349.8 1589.79,1348.43 1587.92,1347.47 1583.67,1345.29 1572,1336.74 1572,1335.81 1572,1335.43 1570.25,1333.1 1568.11,1330.62 1565.97,1328.15 1563.55,1324.18 1562.75,1321.81 1557.99,1307.78 1557.85,1306.95 1558.13,1294.94 1558.39,1284.07 1558.24,1282.88 1556.33,1280.79 1555.18,1279.53 1553.5,1277.15 1552.6,1275.5 1551.7,1273.85 1549.39,1270.47 1547.48,1268 1544.46,1264.09 1537.59,1254.28 1530.34,1243.54 1527.45,1239.25 1518.85,1227.45 1515.01,1222.5 1503.48,1207.64 1501,1201.38 1501,1187.16 1501,1177.6 1501.29,1175.81 1503.57,1171.23 1507.38,1163.59 1515.3,1156.8 1522.84,1154.7 1529.5,1152.85 1540.98,1152.46 1545.6,1153.92 1547.2,1154.42 1549.81,1155.12 1551.41,1155.48 1555.34,1156.34 1567.25,1168.01 1571.01,1174.68 1572.68,1177.62 1575.52,1181.71 1577.34,1183.77 1579.16,1185.82 1582.28,1190.22 1584.28,1193.55 1586.27,1196.88 1588.85,1200.46 1590,1201.5 1591.15,1202.54 1593.73,1206.12 1595.74,1209.45 1597.74,1212.78 1602.45,1219.65 1606.2,1224.72 1609.96,1229.78 1613.94,1235.48 1615.06,1237.38 1617.22,1241.05 1622.94,1244.01 1627.77,1243.98 1629.27,1243.97 1635.13,1246.3 1640.78,1249.16 1648.33,1252.98 1652,1255.51 1654.6,1258.68 1654.6,1258.68 1658.13,1263 1658.13,1263 1658.13,1263 1690.82,1263.01 1690.82,1263.01 1723.03,1263.02 1723.57,1263.05 1728.5,1265.37 1731.33,1266.7 1735.93,1270.29 1739.12,1273.65 1745.85,1280.75 1748,1286.82 1748,1298.74 1748,1305.55 1747.58,1307.53 1745.03,1312.59 1740.55,1321.53 1736.75,1325.49 1728.84,1329.44 1728.84,1329.44 1721.73,1333 1721.73,1333 1721.73,1333 1689.07,1333 1689.07,1333 1689.07,1333 1656.42,1333 1656.42,1333 1656.42,1333 1651.96,1337.61 1651.96,1337.61 1648.98,1340.69 1644.21,1343.85 1637.59,1347.11 1637.59,1347.11 1627.68,1352 1627.68,1352 1627.68,1352 1613.59,1351.9 1613.59,1351.9 1605.15,1351.84 1597.86,1351.29 1595.42,1350.51 Z"/>
                    <path style="fill:none;stroke-dasharray:none;stroke-linecap:round;stroke-linejoin:round;" sodipodi:nodetypes="ccccccccccccccccccccccccccccc" d="M 295.888,1348.5 C 292.587,1346.71 290.61,1342.05 291.475,1338.11 291.842,1336.44 294.915,1332.06 298.365,1328.3 304.652,1321.43 370.681,1249.77 411.505,1205.5 423.678,1192.3 441.913,1172.5 452.026,1161.5 462.14,1150.5 496.759,1112.94 528.957,1078.02 561.156,1043.11 601.17,999.685 617.878,981.523 634.586,963.36 649.661,947.282 651.378,945.793 655.115,942.552 658.747,941.573 662.184,942.88 665.508,944.144 676.969,954.787 678.04,957.606 678.501,958.817 679.384,968.964 680.002,980.154 681.443,1006.21 683.325,1021.28 685.881,1027.23 686.999,1029.83 688.423,1033.88 689.048,1036.23 690.801,1042.83 701.624,1061.04 708.571,1069.08 712.01,1073.06 720.063,1081.11 726.466,1086.97 732.868,1092.82 738.98,1098.94 740.047,1100.56 743.667,1106.05 742.143,1111.16 735.688,1115.17 726.979,1120.59 647.592,1163.26 644.615,1164.12 638.542,1165.89 636.328,1164.46 619.051,1147.66 609.948,1138.8 600.371,1129.55 597.77,1127.09 597.77,1127.09 593.04,1122.61 593.04,1122.61 593.04,1122.61 590.42,1125.06 590.42,1125.06 585.925,1129.25 576.404,1150.23 573.039,1163.36 571.368,1169.88 570,1175.64 570,1176.16 570,1176.72 574.578,1176.98 581.08,1176.8 592.137,1176.5 592.164,1176.51 594.58,1179.31 599.936,1185.51 596.997,1190.62 584,1197.69 519.483,1232.79 494.185,1246.53 477.5,1255.52 466.5,1261.44 426.45,1283.18 388.5,1303.83 293.422,1355.56 301.606,1351.61 295.888,1348.5 Z"/>
                    <path style="fill:none;stroke-dasharray:none;stroke-linecap:round;stroke-linejoin:round;" sodipodi:nodetypes="ccccccccccccccccccccccccccccccccccc" d="M 269.5,1388.29 C 268.4,1388.03 265.7,1386.41 263.5,1384.69 257.08,1379.65 227.688,1352.22 225.523,1349.24 222.834,1345.54 222.976,1340.12 225.859,1336.45 227.131,1334.83 235.025,1326.08 243.4,1317 251.775,1307.92 277.71,1279.8 301.032,1254.5 324.354,1229.2 353.813,1197.25 366.495,1183.5 424.248,1120.88 451.124,1091.71 471.984,1068.99 484.35,1055.52 497.655,1041.13 501.551,1037 505.446,1032.88 518.745,1018.48 531.104,1005 607.014,922.235 649.407,876.841 652.083,875.457 658.294,872.245 658.321,872.265 697.097,907.972 710.519,920.332 724.065,933.033 727.2,936.196 733.699,942.755 734.746,945.919 733.139,954.148 727.3,984.05 734.93,1017.08 753.997,1044.44 758.148,1050.4 769.468,1061.8 777.689,1068.3 785.712,1074.65 788,1077.39 788,1080.68 788,1086.32 785.249,1088.76 769.702,1096.91 757.233,1103.45 755.964,1103.04 738.394,1086.88 721.811,1071.62 715.854,1064.14 705.638,1045.73 702.341,1039.79 699.177,1031.73 694.527,1017.43 692.233,1010.37 690.001,987.691 689.986,971.292 689.986,971.292 689.972,955.5 689.972,955.5 689.972,955.5 674.641,941.552 674.641,941.552 666.208,933.88 658.85,927.45 658.289,927.263 657.727,927.076 647.645,937.377 635.884,950.155 624.123,962.933 582.1,1008.53 542.5,1051.48 502.9,1094.43 446.88,1155.21 418.011,1186.54 389.142,1217.87 359.892,1249.6 353.011,1257.05 346.13,1264.51 330.375,1281.59 318,1295.01 305.625,1308.43 290.901,1324.38 285.28,1330.46 285.28,1330.46 275.06,1341.5 275.06,1341.5 275.06,1341.5 280.773,1347.27 280.773,1347.27 286.116,1352.68 286.485,1353.36 286.466,1357.77 286.438,1364.32 280.677,1382.8 277.796,1385.58 275.217,1388.07 272.463,1388.97 269.5,1388.29 Z"/>
                    <path style="fill:none;stroke-dasharray:none;stroke-linecap:round;stroke-linejoin:round;" sodipodi:nodetypes="cccccccccccccccccccccccccccccccccc" d="M 548,1695.8 C 543.145,1692.54 534.559,1675.96 535.442,1671.54 535.776,1669.87 538.708,1659.5 541.958,1648.5 549.399,1623.31 551,1614.53 551,1598.88 551,1584.21 548.575,1571.06 543.441,1557.88 539.743,1548.38 511.265,1495.29 507.416,1490.72 506.087,1489.14 505,1487.41 505,1486.87 505,1484.27 484.861,1465.36 475.568,1459.22 463.655,1451.36 455.166,1447.87 427.539,1439.46 416.01,1435.95 405.448,1432.23 404.066,1431.2 400.394,1428.46 394.034,1416.24 394.016,1411.89 393.996,1407.28 396.86,1404.33 406.357,1399.19 414.854,1394.6 489.907,1353.88 515.5,1339.98 525.4,1334.61 557.35,1317.27 586.5,1301.45 615.65,1285.64 648.725,1267.66 660,1261.5 671.275,1255.33 689.5,1245.45 700.5,1239.53 711.5,1233.61 725.675,1225.95 732,1222.5 798.905,1185.98 861.186,1152.38 864.079,1151.24 869.986,1148.91 873.863,1151.2 879.044,1160.08 884.821,1169.97 884.982,1172.86 880.571,1187.5 871.874,1216.37 869.838,1225.79 869.272,1239.8 868.541,1257.92 870.856,1272 877.149,1287.71 881.215,1297.87 905.696,1343.01 913.351,1354.47 928.274,1376.8 953.339,1394.01 982.5,1401.93 998.909,1406.4 1012.86,1411.1 1015.26,1412.99 1016.62,1414.06 1019.88,1419.17 1022.5,1424.35 1026.52,1432.29 1027.16,1434.32 1026.6,1437.32 1025.48,1443.3 1032.56,1439.07 937.5,1490.55 914.4,1503.05 864.9,1529.94 827.5,1550.29 790.1,1570.64 750.725,1592 740,1597.76 729.275,1603.51 715.325,1611.05 709,1614.5 702.675,1617.95 674.55,1633.25 646.5,1648.49 618.45,1663.73 586.931,1680.87 576.457,1686.58 565.983,1692.3 556.083,1697.23 554.457,1697.56 552.313,1697.98 550.538,1697.5 548,1695.8 Z"/>
                    <path style="fill:none;stroke-dasharray:none;stroke-linecap:round;stroke-linejoin:round;" sodipodi:nodetypes="cccccccccccccccccccccccc" d="M 996.096,1122.95 C 990.796,1119.12 937.368,1069.95 934,1065.81 932.625,1064.13 929.241,1058.64 926.479,1053.62 926.479,1053.62 921.458,1044.5 921.458,1044.5 921.458,1044.5 913.479,1041.73 913.479,1041.73 909.091,1040.21 901.179,1037.84 895.897,1036.46 895.897,1036.46 886.294,1033.96 886.294,1033.96 886.294,1033.96 880.897,1036.47 880.897,1036.47 877.361,1038.11 873.733,1038.98 870.376,1038.99 867.557,1039 863.338,1039.67 861,1040.5 854.228,1042.89 848.75,1042.48 845.616,1039.34 844.155,1037.88 842.717,1035.72 842.421,1034.54 841.586,1031.21 842.62,992.055 843.676,987 845.236,979.533 851.706,968.47 857.733,962.961 864.756,956.543 870.46,953.242 880.448,949.817 880.448,949.817 888.5,947.056 888.5,947.056 888.5,947.056 935.366,947.028 935.366,947.028 974.659,947.005 982.98,947.246 986.866,948.52 989.415,949.357 994.037,950.724 997.138,951.559 1008.35,954.577 1020.35,966.167 1025.9,979.345 1025.9,979.345 1028.5,985.5 1028.5,985.5 1028.5,985.5 1028.78,1039.38 1028.78,1039.38 1029.1,1099.69 1029.2,1098.68 1022,1111 1018.46,1117.06 1013.49,1122.08 1008.32,1124.84 1004.63,1126.8 1000.53,1126.17 996.096,1122.95 Z"/>
                    <path style="fill:none;stroke-dasharray:none;stroke-linecap:round;stroke-linejoin:round;" sodipodi:nodetypes="cccccccccccccccccccccccccc" d="M 1401,778.093 C 1400.17,777.603 1396.35,776.422 1392.5,775.47 1384.29,773.439 1374.71,768.799 1367,763.124 1363.97,760.897 1359.16,757.502 1356.3,755.58 1353.44,753.659 1350.34,750.604 1349.41,748.793 1348.49,746.982 1346.17,743.76 1344.26,741.633 1340.73,737.69 1331.93,720.134 1329.41,712 1328.65,709.525 1328.02,705.348 1328.01,702.718 1328,700.088 1327.33,696.32 1326.5,694.346 1325.2,691.239 1325,677.778 1325,594.312 1325,522.599 1325.3,497.308 1326.17,495.684 1326.81,494.483 1327.69,490.125 1328.13,486 1329.33,474.592 1330.27,471.417 1335.99,459.538 1340.81,449.508 1342.21,447.607 1352.38,437.181 1362.89,426.406 1364.15,425.457 1375.5,419.755 1382.1,416.438 1388.85,413.307 1390.5,412.795 1404.39,408.494 1436.58,408.493 1450.5,412.793 1454.32,413.974 1465.79,419.773 1473.34,424.34 1481.3,429.163 1495.71,443.958 1500.81,452.56 1504.98,459.586 1508.87,468.426 1511.56,477 1512.75,480.766 1512.98,499.78 1512.99,593.601 1513,673.027 1512.68,706.692 1511.89,709.101 1509.51,716.386 1505.59,725.827 1501.95,733 1498.94,738.946 1496.02,742.591 1487.83,750.591 1473.02,765.061 1463.11,771.259 1447,776.124 1440.6,778.057 1436.79,778.433 1421,778.687 1410.83,778.851 1401.83,778.584 1401,778.093 Z"/>
                    <path style="fill:none;stroke-dasharray:none;stroke-linecap:round;stroke-linejoin:round;" sodipodi:nodetypes="ccccccccccccc" d="M 1104.14,1134.04 C 1096.83,1131.55 1090.06,1126.62 1082.95,1118.6 1076.21,1111.01 1072.51,1104.39 1070.72,1096.72 1069.03,1089.49 1069.02,995.934 1070.71,987.761 1073.95,972.022 1091.71,954.06 1107.28,950.766 1115.13,949.105 1205.9,948.521 1213,950.086 1224.87,952.703 1229.42,954.039 1231.42,955.499 1232.56,956.336 1235.08,958.088 1237,959.391 1241.67,962.552 1243.85,965.169 1248.8,973.529 1256.15,985.936 1255.98,984.325 1255.98,1042.5 1255.98,1099.19 1256.09,1097.94 1250.02,1109.96 1245.71,1118.5 1239.28,1125.08 1230.99,1129.44 1218.21,1136.15 1219.98,1135.98 1162,1135.92 1113.9,1135.86 1109.05,1135.71 1104.14,1134.04 Z"/>
                    <path style="fill:none;stroke-dasharray:none;stroke-linecap:round;stroke-linejoin:round;" sodipodi:nodetypes="cccccccccc" d="M 1017.5,1306.25 C 1016.4,1305.98 1010.55,1302.48 1004.5,1298.47 991.064,1289.58 979.63,1278.32 978.098,1272.47 975.44,1262.33 974.168,1251.49 974.206,1239.32 974.255,1223.39 973.832,1224.28 989.945,1206.5 1005.96,1188.84 1008.13,1187 1012.96,1187 1020.86,1187 1023.89,1190.14 1027.39,1201.93 1028.77,1206.58 1029,1214.01 1029,1253.67 1029,1253.67 1029,1299.97 1029,1299.97 1029,1299.97 1026.25,1302.91 1026.25,1302.91 1023.31,1306.05 1020.71,1307.04 1017.5,1306.25 Z"/>
                    <path style="fill:none;stroke-dasharray:none;stroke-linecap:round;stroke-linejoin:round;" sodipodi:nodetypes="cccccccccccccccccccccccccccccccccccccc" d="M 529.5,1761.16 C 527.85,1760.15 525.992,1758.69 525.37,1757.91 522.635,1754.49 478.955,1673.01 478.46,1670.4 478.094,1668.47 478.598,1666.33 479.963,1664 492.117,1643.29 498.554,1619.12 497.625,1597.7 496.239,1565.72 483.994,1538.73 460.79,1516.5 451.791,1507.88 447.83,1504.87 435.5,1497.27 431.272,1494.66 414.121,1488.58 406,1486.8 401.325,1485.78 393.326,1484.58 388.225,1484.13 379.931,1483.41 378.633,1483.02 375.952,1480.45 373.256,1477.87 364.128,1461.67 337.633,1412.47 327.795,1394.2 327.03,1390.77 331.75,1386.16 333.262,1384.68 344.85,1377.88 357.5,1371.05 370.15,1364.22 400.75,1347.64 425.5,1334.2 450.25,1320.75 499.75,1293.9 535.5,1274.51 571.25,1255.13 631.775,1222.28 670,1201.52 708.225,1180.76 745.35,1160.61 752.5,1156.74 768.666,1148 774.993,1144.56 834.542,1112.17 860.965,1097.79 883.915,1085.77 885.542,1085.44 890.079,1084.54 894.577,1088.27 899.495,1097 915.167,1124.83 940.182,1172.35 940.63,1175.14 941.04,1177.69 940.402,1179.94 937.972,1184.5 936.214,1187.8 934.407,1191.63 933.957,1193 933.508,1194.38 931.73,1198.88 930.006,1203 928.283,1207.13 925.854,1215.9 924.608,1222.5 922.626,1233 922.435,1236.19 923.073,1248 923.917,1263.6 926.605,1276.65 931.012,1286.55 942.279,1311.83 955.319,1328.01 974.5,1340.5 992.768,1352.4 1010.92,1358.71 1033.36,1360.98 1039.67,1361.61 1041.68,1362.24 1043.54,1364.14 1044.82,1365.44 1052.69,1379.1 1061.03,1394.5 1069.37,1409.9 1079.75,1429.05 1084.1,1437.05 1088.44,1445.05 1092,1452.79 1092,1454.25 1092,1459.13 1089.77,1462.05 1083.06,1465.94 1077.71,1469.03 983.657,1520.18 893.5,1569.02 883.6,1574.38 852.55,1591.25 824.5,1606.5 796.45,1621.76 764.95,1638.86 754.5,1644.52 695.395,1676.5 635.209,1709.15 596,1730.5 528.313,1767.37 534.779,1764.39 529.5,1761.16 Z"/>
                    <path style="fill:none;stroke-dasharray:none;stroke-linecap:round;stroke-linejoin:round;" sodipodi:nodetypes="cccccccccccccccccccc" d="M 659.5,775.989 C 657.85,775.546 654.025,774.63 651,773.954 645.259,772.672 634.698,767.735 624.541,761.586 608.273,751.737 592.704,728.877 586.684,706 585.277,700.653 584.978,486.095 586.368,479.5 588.275,470.457 597.056,451.745 602.932,444.204 608.994,436.424 614.719,430.663 618.716,428.321 621.072,426.94 623,425.38 623,424.855 623,423.671 631.476,419.349 640.187,414.904 648.824,410.498 657.035,409.009 676.5,408.318 692.875,407.737 699.234,408.824 717.129,415.265 727.244,418.906 745.098,431.877 750.592,439.576 753.017,442.976 755.717,446.35 756.591,447.075 759.146,449.196 767.616,467.005 768.921,473 769.579,476.025 770.767,480.585 771.559,483.134 773.713,490.06 773.713,693.94 771.559,700.866 770.767,703.415 769.606,707.975 768.981,711 767.759,716.91 759.712,733.937 755.02,740.541 748.974,749.049 735.814,760.275 724.839,766.286 715.046,771.649 711.611,772.913 698.736,775.896 693.334,777.148 664.066,777.217 659.5,775.989 Z"/>
                    <path style="fill:none;stroke-dasharray:none;stroke-linecap:round;stroke-linejoin:round;" sodipodi:nodetypes="cccccccccccccccccccccccccccccccccccc" d="M 568.787,1700.16 C 588.527,1689.4 605.409,1680.24 641,1660.98 647.875,1657.26 703,1627.35 763.5,1594.5 871.12,1536.07 950.869,1492.8 1010,1460.76 1026.22,1451.97 1040.06,1444.25 1040.74,1443.61 1041.72,1442.69 1039.97,1438.71 1032.55,1424.97 1019.59,1400.99 1019.75,1401.22 1015.27,1400.47 1006.19,1398.95 984.438,1392.26 971.681,1387.07 950.815,1378.58 927.108,1358.94 914.858,1340 908.606,1330.33 895.167,1305.98 891.956,1298.5 890.775,1295.75 888.982,1291.7 887.973,1289.5 886.963,1287.3 884.915,1279.65 883.422,1272.5 879.763,1254.97 879.279,1235.85 882.132,1221.5 884.67,1208.73 889.428,1191.67 893.219,1181.74 893.219,1181.74 896.182,1173.98 896.182,1173.98 896.182,1173.98 885.995,1154.99 885.995,1154.99 880.393,1144.55 875.34,1136 874.766,1136 874.192,1136 868.498,1138.87 862.111,1142.39 855.725,1145.9 833.625,1157.89 813,1169.03 792.375,1180.17 757.95,1198.84 736.5,1210.51 700.025,1230.36 686.043,1237.95 626,1270.46 613.075,1277.46 594.4,1287.59 584.5,1292.97 574.6,1298.35 548.05,1312.77 525.5,1325.01 502.95,1337.25 480.675,1349.38 476,1351.95 471.325,1354.53 447.587,1367.39 423.25,1380.54 398.913,1393.69 379,1404.73 379,1405.09 379,1405.44 383.458,1414 388.907,1424.11 388.907,1424.11 398.814,1442.5 398.814,1442.5 398.814,1442.5 404.657,1443.79 404.657,1443.79 443.971,1452.51 467.589,1464.08 489.044,1485.15 500.802,1496.69 506.517,1504.8 518.53,1527 535.726,1558.77 539.508,1572.22 539.487,1601.5 539.475,1619.02 539.375,1619.88 535.794,1633.5 533.77,1641.2 530.482,1652.22 528.488,1658 526.494,1663.78 524.629,1669.44 524.344,1670.59 523.79,1672.83 544.418,1712 546.152,1712 546.659,1712 556.845,1706.67 568.787,1700.16 Z"/>
                    <path style="fill:none;stroke-dasharray:none;stroke-linecap:round;stroke-linejoin:round;" sodipodi:nodetypes="cccccccccccccccccccccc" d="M 686.993,1498.59 C 686.99,1497.99 683.351,1491.42 678.908,1484 668.731,1466.99 665.999,1461.65 666.004,1458.78 666.013,1453.3 669.154,1450.79 691.343,1438.56 714.752,1425.65 714.051,1426.32 711.947,1418.75 710.932,1415.09 709.372,1414.1 707.45,1415.88 706.927,1416.37 696.579,1421.77 684.454,1427.88 660.466,1439.98 657.207,1440.89 652.613,1436.75 650.227,1434.6 634.719,1409.67 631.274,1402.45 630.369,1400.55 629.214,1399 628.707,1399 627.447,1399 615,1408.97 615,1409.98 615,1410.42 618.611,1417.7 623.024,1426.14 632.979,1445.2 633.778,1447.6 631.581,1451.84 629.516,1455.84 626.92,1457.46 601.592,1470.54 601.592,1470.54 580.931,1481.21 580.931,1481.21 580.931,1481.21 584.57,1487.85 584.57,1487.85 586.572,1491.51 588.349,1494.65 588.52,1494.83 588.69,1495.01 594.831,1491.81 602.165,1487.72 609.499,1483.62 620.345,1477.73 626.266,1474.64 644.447,1465.12 643.314,1464.26 663.938,1503.19 663.938,1503.19 667.482,1509.88 667.482,1509.88 667.482,1509.88 677.241,1504.78 677.241,1504.78 682.609,1501.97 686.997,1499.18 686.993,1498.59 Z"/>
                    <path style="fill:none;stroke-dasharray:none;stroke-linecap:round;stroke-linejoin:round;" sodipodi:nodetypes="ccccccccccccccccccccccccccccccccccccccccccccccccccccccccccccccccccccccccccccc" d="M 1587,1469.5 C 1587.55,1457.43 1588.41,1455.36 1595.42,1449.21 1599.17,1445.91 1607.65,1443 1613.5,1443 1619.42,1443 1627.85,1445.93 1631.73,1449.33 1637.66,1454.54 1639.98,1460.88 1639.99,1471.87 1639.99,1471.87 1640,1481.25 1640,1481.25 1640,1481.25 1645.25,1480.64 1645.25,1480.64 1661.24,1478.8 1662.66,1478.41 1679,1471.5 1682.03,1470.22 1686.53,1468.46 1689,1467.59 1694.38,1465.68 1713.87,1454.46 1719.5,1450.03 1721.7,1448.3 1725.15,1445.67 1727.17,1444.19 1736.95,1437.02 1741.88,1432.86 1746,1428.27 1751.57,1422.08 1761.98,1409.43 1764,1406.42 1764.83,1405.18 1766.98,1402.06 1768.78,1399.49 1770.59,1396.91 1773.19,1392.71 1774.57,1390.15 1775.95,1387.59 1777.99,1384.05 1779.12,1382.27 1783.52,1375.31 1791.27,1355.08 1793.02,1346 1793.49,1343.53 1794.86,1338.02 1796.05,1333.76 1797.24,1329.5 1797.96,1325.34 1797.64,1324.51 1797.18,1323.3 1795.01,1323 1786.65,1323 1777.23,1323 1775.71,1322.73 1770.86,1320.24 1766.43,1317.95 1765.02,1316.53 1762.75,1312.06 1760.4,1307.43 1760,1305.42 1760,1298.26 1760,1287.21 1762.42,1281.32 1768.88,1276.62 1776.92,1270.77 1779.19,1270 1788.39,1270 1793.06,1270 1797.1,1269.65 1797.36,1269.22 1797.88,1268.38 1796.64,1262.15 1794.53,1255 1793.8,1252.53 1792.66,1248.03 1792,1245 1791.33,1241.97 1789.76,1237.03 1788.49,1234 1783.35,1221.67 1777.72,1209.63 1775.19,1205.55 1773.71,1203.17 1770.53,1198 1768.11,1194.07 1765.7,1190.14 1762.89,1186.48 1761.87,1185.93 1760.85,1185.39 1759.3,1183.49 1758.41,1181.72 1756.29,1177.48 1734.88,1155.78 1728.5,1151.41 1725.75,1149.52 1721.7,1146.62 1719.5,1144.97 1717.3,1143.31 1713.25,1140.79 1710.5,1139.37 1707.75,1137.94 1704.6,1135.97 1703.5,1134.99 1697.64,1129.73 1669.87,1118.94 1654.5,1115.95 1651.2,1115.3 1646.86,1114.18 1644.86,1113.44 1642.86,1112.71 1640.95,1112.38 1640.61,1112.72 1640.28,1113.06 1640,1117.79 1640,1123.23 1640,1128.77 1639.49,1134.09 1638.85,1135.32 1637.22,1138.39 1628.16,1148.26 1625.62,1149.71 1624.38,1150.43 1619.58,1150.94 1614,1150.95 1605.12,1150.97 1604.11,1150.76 1598.5,1147.69 1593.5,1144.94 1592.04,1143.5 1589.75,1139.02 1587.28,1134.2 1587,1132.59 1587,1123.49 1587,1117.9 1586.72,1113.05 1586.37,1112.71 1586.03,1112.36 1584.17,1112.74 1582.25,1113.54 1580.33,1114.34 1577.35,1115 1575.63,1115 1572.64,1115 1565.86,1116.97 1550.5,1122.29 1538.7,1126.39 1524.5,1133.53 1513.93,1140.68 1508.39,1144.43 1502.26,1148.47 1500.3,1149.65 1494.03,1153.42 1469.22,1179.01 1462.14,1189 1455.17,1198.84 1442.19,1223.32 1438.82,1232.97 1431.86,1252.95 1428.21,1266.91 1429.43,1268.88 1429.85,1269.56 1433.43,1270 1438.6,1270 1445.24,1270 1447.99,1270.46 1451.29,1272.11 1462.64,1277.81 1466.97,1284.57 1466.99,1296.59 1467,1302.65 1466.52,1304.62 1463.75,1310.02 1461.53,1314.34 1459.13,1317.31 1456.16,1319.42 1452.08,1322.31 1451.13,1322.53 1440.66,1323 1440.66,1323 1429.5,1323.5 1429.5,1323.5 1429.5,1323.5 1429.18,1326.84 1429.18,1326.84 1429,1328.68 1430.02,1333.77 1431.43,1338.15 1432.84,1342.54 1434.01,1347.11 1434.02,1348.31 1434.04,1349.52 1435.2,1353.2 1436.61,1356.5 1438.02,1359.8 1439.77,1364.35 1440.5,1366.62 1444.13,1377.87 1458.01,1401.53 1466.95,1411.68 1469.18,1414.21 1471,1416.73 1471,1417.28 1471,1419.06 1489.4,1437.13 1493.22,1439.1 1495.26,1440.15 1497.37,1441.82 1497.9,1442.81 1499.46,1445.72 1517.45,1457.27 1531.54,1464.4 1544.06,1470.74 1553.2,1474.35 1565,1477.62 1568.03,1478.45 1571.85,1479.52 1573.5,1479.99 1575.15,1480.46 1578.75,1480.76 1581.5,1480.67 1581.5,1480.67 1586.5,1480.5 1586.5,1480.5 1586.5,1480.5 1587,1469.5 1587,1469.5 Z"/>
                    <path style="fill:none;stroke-dasharray:none;stroke-linecap:round;stroke-linejoin:round;" sodipodi:nodetypes="cccccccccccccccccccccccc" d="M 1008.92,1570.08 C 1005.32,1566.48 1005.07,1562.16 1008.25,1558.57 1009.49,1557.18 1035.25,1542.61 1065.5,1526.2 1095.75,1509.79 1123.31,1494.82 1126.75,1492.93 1131.92,1490.09 1133.24,1488.81 1134.45,1485.5 1136.99,1478.55 1143,1457.13 1143,1455.04 1143,1453.93 1140.04,1447.34 1136.42,1440.39 1129.1,1426.32 1128.9,1424.51 1134.07,1419.73 1134.07,1419.73 1137.07,1416.97 1137.07,1416.97 1137.07,1416.97 1229.86,1417.23 1229.86,1417.23 1229.86,1417.23 1322.66,1417.5 1322.66,1417.5 1322.66,1417.5 1326.35,1420.32 1326.35,1420.32 1328.98,1422.32 1331.54,1426.11 1335.15,1433.32 1346.42,1455.82 1365.01,1484.33 1375.89,1495.79 1378.85,1498.91 1382.97,1503.72 1385.04,1506.48 1389.7,1512.69 1400.84,1523.49 1407.5,1528.24 1410.25,1530.21 1413.52,1533.2 1414.77,1534.89 1416.01,1536.58 1418.49,1538.71 1420.27,1539.62 1423.32,1541.18 1425.13,1542.57 1435.16,1551 1440.02,1555.09 1443.36,1561.73 1442.42,1565.46 1442.07,1566.86 1440.45,1569.13 1438.81,1570.5 1438.81,1570.5 1435.85,1573 1435.85,1573 1435.85,1573 1223.85,1573 1223.85,1573 1223.85,1573 1011.85,1573 1011.85,1573 1011.85,1573 1008.92,1570.08 1008.92,1570.08 Z"/>
                    <path style="fill:none;stroke-dasharray:none;stroke-linecap:round;stroke-linejoin:round;" sodipodi:nodetypes="cccccccccccccccccccccccccccc" d="M 1325,1129.82 C 1320.88,1127.58 1316.02,1124.46 1314.22,1122.88 1312.41,1121.29 1310.54,1120 1310.06,1120 1309.59,1120 1308.26,1118.54 1307.1,1116.75 1305.95,1114.96 1304.1,1112.15 1302.99,1110.5 1301.88,1108.85 1300.08,1104.53 1298.99,1100.89 1297.11,1094.67 1297,1091.29 1297,1042.5 1297,993.706 1297.11,990.334 1298.99,984.108 1300.08,980.474 1301.77,976.323 1302.74,974.884 1303.71,973.446 1305.68,970.521 1307.12,968.384 1309.98,964.143 1311.72,962.423 1317.01,958.604 1322.86,954.38 1325.17,953.361 1334,951.106 1342.26,948.996 1343.89,948.944 1391.5,949.282 1423.79,949.511 1442.11,950.021 1445.21,950.777 1457.44,953.758 1470.75,964.295 1477.28,976.176 1481.95,984.664 1483,988.94 1483.63,1002 1484.23,1014.43 1483.08,1016.43 1472.11,1021.95 1467.73,1024.15 1463.86,1026.42 1463.5,1027 1463.15,1027.57 1460.3,1029.41 1457.18,1031.08 1447.23,1036.4 1439.35,1041.37 1433.51,1046 1430.39,1048.47 1425.42,1052.3 1422.47,1054.5 1419.52,1056.7 1414.72,1060.36 1411.81,1062.64 1404.38,1068.44 1378.38,1095.04 1377.58,1097.66 1377.22,1098.85 1375.36,1101.01 1373.46,1102.46 1371.56,1103.92 1369.27,1106.54 1368.39,1108.3 1367.5,1110.06 1365.54,1112.85 1364.04,1114.5 1362.53,1116.15 1359.35,1120.57 1356.97,1124.32 1351.64,1132.7 1349.28,1134.02 1339.8,1133.94 1333.22,1133.89 1331.76,1133.48 1325,1129.82 Z"/>
                    <path style="fill:none;stroke-dasharray:none;stroke-linecap:round;stroke-linejoin:round;" sodipodi:nodetypes="ccccccccccccccccccccccccccccc" d="M 417.923,1048.08 C 417.923,1048.08 415,1045.15 415,1045.15 415,1045.15 415,812.124 415,812.124 415,633.584 415.279,578.481 416.195,576.472 418.727,570.914 417.655,571 484.5,571 551.345,571 550.273,570.914 552.805,576.472 553.687,578.408 554,594.119 554,636.482 554,677.502 554.329,694.673 555.152,696.685 555.786,698.233 556.638,701.75 557.045,704.5 559.101,718.383 560.278,722.115 566.671,735 576.282,754.37 590.746,773.552 599.067,777.963 601.029,779.003 603.258,780.606 604.021,781.526 605.892,783.78 620.942,793.534 624.031,794.493 625.389,794.916 628.975,796.48 632,797.971 635.025,799.462 639.75,801.232 642.5,801.904 645.25,802.577 649.75,803.761 652.5,804.536 655.25,805.31 658.749,806.193 660.275,806.497 666.018,807.643 669.217,813.647 666.972,819.067 664.928,824.002 661.021,825.375 647.752,825.818 647.752,825.818 636.004,826.211 636.004,826.211 636.004,826.211 611.861,852.355 611.861,852.355 598.582,866.735 586.226,879.57 584.404,880.877 582.27,882.409 579.029,883.476 575.296,883.877 575.296,883.877 569.5,884.5 569.5,884.5 569.5,884.5 568.82,891.375 568.82,891.375 568.347,896.163 567.436,899.24 565.82,901.507 564.544,903.297 535.385,935.261 501.021,972.537 466.658,1009.81 437.675,1041.42 436.614,1042.76 433.424,1046.82 426.905,1051 423.773,1051 421.871,1051 419.822,1049.98 417.923,1048.08 Z"/>
                    <path style="fill:none;stroke-dasharray:none;stroke-linecap:round;stroke-linejoin:round;" sodipodi:nodetypes="cccccccccccccccccccccccccccccccccccccccccccccccccccccccccccccccccccccccccccccc" d="M 1590.5,1572.03 C 1589.4,1571.54 1584.62,1571.11 1579.87,1571.07 1574.62,1571.03 1569.84,1570.41 1567.65,1569.5 1565.68,1568.67 1562.71,1568 1561.05,1568 1559.39,1568 1555.88,1567.5 1553.26,1566.9 1548.57,1565.81 1546.86,1565.35 1530,1560.57 1525.33,1559.24 1518.58,1556.95 1515,1555.48 1511.42,1554 1505.28,1551.51 1501.33,1549.95 1492.18,1546.33 1483.44,1541.86 1479.06,1538.58 1477.16,1537.16 1475.09,1536 1474.46,1536 1473.82,1536 1471.55,1534.74 1469.4,1533.21 1467.26,1531.68 1463.47,1529.24 1461,1527.79 1458.53,1526.35 1453.35,1522.67 1449.5,1519.61 1445.65,1516.55 1440.92,1513.17 1439,1512.1 1434.82,1509.79 1404.4,1478.98 1398,1470.58 1379.63,1446.5 1365.47,1422.56 1359.2,1405 1357.54,1400.33 1354.61,1392.67 1352.71,1388 1350.81,1383.33 1348.27,1375 1347.06,1369.5 1345.86,1364 1344.24,1357.25 1343.47,1354.5 1341.66,1348.05 1341.1,1343.92 1340.17,1330.5 1339.76,1324.45 1338.87,1318.52 1338.21,1317.32 1337.4,1315.85 1337,1309.52 1337,1298 1337,1286.48 1337.4,1280.15 1338.21,1278.68 1338.87,1277.48 1339.77,1271.55 1340.2,1265.5 1341.33,1249.62 1342.5,1241.44 1344.79,1233.5 1345.9,1229.65 1347.5,1223.8 1348.34,1220.5 1350.65,1211.5 1353.94,1202.07 1356.61,1196.75 1357.93,1194.14 1359,1191.27 1359,1190.37 1359,1189.48 1362.53,1181.72 1366.84,1173.13 1375.62,1155.61 1377.83,1152 1388.8,1137.14 1391.38,1133.63 1394.42,1129.27 1395.54,1127.43 1400.84,1118.8 1429.69,1089.66 1443.26,1079.25 1449.68,1074.33 1463.43,1064.95 1470.34,1060.79 1479.51,1055.26 1500.03,1045 1501.91,1045 1502.82,1045 1504.55,1044.3 1505.76,1043.45 1508.07,1041.84 1513.42,1039.87 1528.5,1035.08 1533.45,1033.51 1538.85,1031.75 1540.5,1031.17 1542.15,1030.58 1546.2,1029.61 1549.5,1029 1552.8,1028.39 1557.75,1027.26 1560.5,1026.48 1568.63,1024.18 1577.63,1023.71 1614,1023.7 1649.95,1023.69 1658.15,1024.13 1666.5,1026.48 1669.25,1027.26 1674.2,1028.39 1677.5,1029 1680.8,1029.61 1684.85,1030.58 1686.5,1031.16 1688.15,1031.74 1693.33,1033.36 1698,1034.76 1709.19,1038.1 1718.56,1041.66 1723.5,1044.45 1725.7,1045.69 1728.98,1046.99 1730.8,1047.34 1732.61,1047.69 1737.25,1049.89 1741.1,1052.23 1744.94,1054.58 1749.84,1057.45 1751.99,1058.62 1754.13,1059.78 1757.89,1062.03 1760.34,1063.62 1762.79,1065.2 1766.08,1067.29 1767.65,1068.25 1772.08,1070.98 1777.01,1074.5 1782.94,1079.19 1790.25,1084.97 1825.57,1119.59 1828.65,1124 1832.26,1129.16 1837.94,1136.94 1842.64,1143.14 1844.91,1146.15 1848.22,1151.51 1850,1155.05 1851.77,1158.6 1854.03,1162.4 1855.02,1163.5 1858.79,1167.7 1875.88,1208.51 1878.05,1218.5 1878.52,1220.7 1879.64,1224.97 1880.53,1228 1882.11,1233.36 1882.72,1236.49 1885.18,1252 1885.95,1256.85 1886.37,1273.08 1886.37,1298 1886.37,1322.92 1885.95,1339.15 1885.18,1344 1882.58,1360.38 1882.08,1362.8 1879.63,1371 1876.97,1379.87 1871.8,1394.6 1868.03,1404 1865.15,1411.18 1852.21,1437.07 1850.53,1439 1849.81,1439.83 1848.04,1442.75 1846.58,1445.5 1845.12,1448.25 1842.57,1452.3 1840.91,1454.5 1839.25,1456.7 1836.61,1460.44 1835.04,1462.81 1828.99,1471.91 1800.23,1502.32 1793,1507.25 1790.53,1508.94 1787.14,1511.71 1785.48,1513.41 1783.81,1515.11 1781.11,1517.29 1779.48,1518.25 1777.84,1519.21 1774.7,1521.36 1772.5,1523.03 1765.98,1527.98 1761.15,1531.28 1754.64,1535.21 1746.35,1540.23 1728.99,1549 1727.36,1549 1726.64,1549 1723.56,1550.13 1720.52,1551.5 1717.48,1552.87 1712.64,1555.06 1709.75,1556.35 1706.86,1557.65 1702.03,1559.25 1699,1559.91 1695.97,1560.56 1690.8,1562.02 1687.5,1563.14 1684.2,1564.26 1679.25,1565.54 1676.5,1565.98 1665.83,1567.7 1659.92,1568.93 1658.74,1569.7 1655.62,1571.71 1594.5,1573.8 1590.5,1572.03 Z"/>
                </g>
            </g>
        </g>
    </g>
</svg>
