<?xml version="1.0" encoding="UTF-8"?>
<svg fill="none" version="1.1" viewBox="0 0 2048 2048" xmlns="http://www.w3.org/2000/svg" xmlns:cc="http://creativecommons.org/ns#" xmlns:dc="http://purl.org/dc/elements/1.1/" xmlns:rdf="http://www.w3.org/1999/02/22-rdf-syntax-ns#">
  <metadata>
    <rdf:RDF>
      <cc:Work rdf:about="">
        <dc:format>image/svg+xml</dc:format>
        <dc:type rdf:resource="http://purl.org/dc/dcmitype/StillImage"/>
      </cc:Work>
    </rdf:RDF>
  </metadata>
  <g wtf="Animation">
    <g transform="matrix(1.3466 0 0 1.3466 -160.58 -501.12)" fill="#000">
      <g>
        <g fill="#000">
          <path d="m994 1534v-58h57.5 57.5v58 58h-57.5-57.5v-58z"/>
          <path d="m999.3 1363.2c0.637-26.42 1.682-39.98 4.662-60.76 7.62-52.98 22.02-82.76 60.85-125.81 12.42-13.77 25.33-25.93 51.69-48.7 24.22-20.92 52.34-48.51 63.12-61.92 12.95-16.12 21.46-34.43 26.05-56.06 2.72-12.808 2.48-39.77-0.48-54.665-5.98-30.089-18.18-53.361-38.7-73.835-21.99-21.94-47.01-34.759-79.49-40.729-16.75-3.079-50.41-3.046-67.4 0.066-48.116 8.815-82.313 35.189-103.67 79.955-7.469 15.658-15.17 40.666-18.85 61.208l-1.701 9.5-54.692 0.259-54.691 0.258v-2.457c0-1.352 0.694-7.75 1.542-14.219 11.516-87.85 59.299-156.32 134.96-193.4 38.682-18.957 80.79-27.937 131-27.937 84.48 0 153.33 25.254 202.64 74.325 40.56 40.362 60.84 90.09 60.86 149.25 0.01 53.094-17 99.164-52.46 142.08-11.56 13.99-36.32 38.66-53.79 53.59-7.56 6.46-19.94 17.03-27.5 23.49-25.33 21.63-50.9 48.37-61.94 64.76-14.98 22.25-21.74 52.58-23.02 103.25l-0.59 23.25h-49.5-49.499l0.597-24.75z"/>
        </g>
      </g>
      <g>
        <g fill="#000">
          <path d="m317 1788.9c-11.275-3.88-23.65-8.09-27.5-9.36-10.475-3.45-52.494-20.02-58.638-23.12-19.019-9.6-28.519-15.95-38.745-25.87-10.685-10.36-22.477-26.69-30.027-41.57-6.055-11.94-16.831-47.69-24.713-82-11.97-52.11-16.059-83.34-17.936-137-1-28.6 1.644-52.4 12.168-109.5l8.477-46s24.093-83 24.093-83c23.089-79.54 24.521-84.04 34.4-108 11.392-27.64 23.409-49.93 42.579-79 9.396-14.25 12.994-18.57 32.857-39.5 12.268-12.925 25.01-26.352 28.314-29.839 8.588-9.061 12.478-10.116 20.328-5.516 9.094 5.329 18.412 21.144 26.905 45.665 3.991 11.52 12.119 53.77 15.908 82.69 3.996 30.5 7.495 70.14 7.548 85.5 0.018 5.5 1.292 34.3 2.83 64 2.138 41.29 2.612 57.41 2.016 68.5-1.545 28.71-1.203 47.59 1.058 58.34 1.138 5.41 2.292 10.2 2.565 10.64s1.595 5.91 2.938 12.16c2.309 10.75 4.435 18.84 12.958 49.36 6.446 23.08 11.921 36.07 19.6 46.5 2.63 3.58 6.031 8.83 7.556 11.67 0 0 2.772 5.18 2.772 5.18l-2.042 4.82c-2.561 6.05-4.421 12.69-7.693 27.45l-2.576 11.62v121.13 121.13s-38.75-0.01-38.75-0.01-38.75-0.01-38.75-0.01-20.5-7.06-20.5-7.06z"/>
          <path d="m464.26 1681.2c0.349-112.03 0.407-115.01 2.482-125.93 8.498-44.7 25.704-77.89 56.2-108.38 30.42-30.42 64.408-48.02 108.56-56.2 10.483-1.94 15.623-2.06 109.29-2.45l98.293-0.41s-12.293-7.73-12.293-7.73c-78.916-49.66-141.93-127.31-173.16-213.35-14.651-40.37-23.36-82.76-25.788-125.54-3.115-54.85 6.243-114.99 26.446-169.96l7.422-20.194-5.374-10.306c-16.673-31.972-21.983-43.356-26.501-56.805-6.198-18.451-6.911-21.414-12.275-51-3.864-21.316-4.661-28.203-6.135-53-2.072-34.867-1.484-70.326 1.509-91 2.065-14.267 7.536-34.021 11.758-42.454 5.694-11.374 17.624-29.506 24.002-36.482 22.128-24.198 46.922-36.567 80.568-40.19 20.129-2.168 40.454 1.756 67.731 13.077 23.827 9.889 49.53 25.131 69.554 41.246 16.373 13.177 46.808 48.093 65.946 75.654 3.85 5.545 7.675 10.096 8.5 10.114 0.825 0.017 6.605-1.336 12.844-3.009 17.136-4.594 52.766-9.729 77.156-11.121 16.31-0.93 25.69-0.93 42 0 24.39 1.392 60.02 6.527 77.16 11.121 6.24 1.673 12.24 3.026 13.34 3.009 1.39-0.023 4.14-3.115 9-10.114 10.95-15.774 20.82-28.122 38.52-48.194 22.76-25.806 38.94-38.632 70.48-55.868 25.78-14.09 48.99-22.507 70.23-25.474 10.71-1.496 13.69-1.551 24-0.441 33.65 3.623 58.44 15.992 80.57 40.19 6.38 6.976 18.31 25.108 24 36.482 4.22 8.433 9.69 28.187 11.76 42.454 2.99 20.674 3.58 56.133 1.51 91-1.48 24.797-2.27 31.684-6.14 53-5.36 29.585-6.07 32.548-12.27 51-4.61 13.726-11.21 27.93-25.05 53.924-3.35 6.283-6.34 12.225-6.65 13.204-0.31 0.983 2.76 10.871 6.86 22.076 11.81 32.232 15.88 48.002 21.16 81.837 7.08 45.409 7.08 84.479 0.01 129.83-5.43 34.82-8.99 48.62-21.12 81.95-8.81 24.22-23.31 54.45-35.72 74.48-20.26 32.73-48.21 66.28-77.56 93.12-19.41 17.75-50 40.6-68.54 51.21l-3.94 2.25 98.44 0.41c93.83 0.39 98.97 0.51 109.45 2.45 44.21 8.19 78.1 25.74 108.56 56.2 30.84 30.83 48.93 66.21 56.6 110.63 1.53 8.89 1.75 21.9 2.07 124.18l0.36 114.25h-588.09-588.1l0.357-114.75z"/>
          <path d="m1109 1534v-58h-57.5-57.5v58 58h57.5 57.5v-58z"/>
          <path d="m1098.3 1364.8c1.28-50.67 8.04-81 23.02-103.25 11.04-16.39 36.61-43.13 61.94-64.76 7.56-6.46 19.94-17.03 27.5-23.49 17.47-14.93 42.23-39.6 53.79-53.59 35.46-42.92 52.47-88.99 52.46-142.08-0.02-59.161-20.3-108.89-60.86-149.25-49.31-49.071-118.16-74.325-202.64-74.325-50.21 0-92.318 8.98-131 27.937-75.659 37.079-123.44 105.55-134.96 193.4-0.848 6.469-1.542 12.867-1.542 14.219v2.457l109.38-0.517 1.701-9.5c3.68-20.542 11.381-45.55 18.85-61.208 21.353-44.766 55.55-71.14 103.67-79.955 16.99-3.112 50.65-3.145 67.4-0.066 32.48 5.97 57.5 18.789 79.49 40.729 20.52 20.474 32.72 43.746 38.7 73.835 2.96 14.895 3.2 41.857 0.48 54.665-4.59 21.63-13.1 39.94-26.05 56.06-10.78 13.41-38.9 41-63.12 61.92-26.36 22.77-39.27 34.93-51.69 48.7-33.16 36.77-47.81 63.01-56.3 100.86-5.64 25.14-8.36 50.5-9.212 85.71l-0.597 24.75h49.499 49.5l0.59-23.25z"/>
        </g>
      </g>
    </g>
  </g>
</svg>
