<svg inkscape:export-xdpi="96" xmlns:rdf="http://www.w3.org/1999/02/22-rdf-syntax-ns#" inkscape:export-ydpi="96" width="2048" viewBox="0 0 2048 2048" style="fill:none;stroke:none;" xmlns:svg="http://www.w3.org/2000/svg" xmlns:dc="http://purl.org/dc/elements/1.1/" xmlns="http://www.w3.org/2000/svg" xmlns:sodipodi="http://sodipodi.sourceforge.net/DTD/sodipodi-0.dtd" height="2048" xmlns:inkscape="http://www.inkscape.org/namespaces/inkscape" xmlns:cc="http://creativecommons.org/ns#" xmlns:osb="http://www.openswatchbook.org/uri/2009/osb" xmlns:xlink="http://www.w3.org/1999/xlink" version="1.1">
    <defs/>
    <sodipodi:namedview pagecolor="#ffffff" inkscape:pagecheckerboard="true" borderlayer="true" inkscape:document-units="px" bordercolor="#666666"/>
    <title></title>
    <g inkscape:label="Animation" id="MainComposition_51563ffc7cb74629ae6c5ca28f25e0dd" inkscape:groupmode="layer" wtf="Animation">
        <g transform="matrix(1, 0, 0, 1, 0, 0)" inkscape:label="Traced Image" opacity="1" id="Group_78fcf5cfe9374a26b89a3c252dd7d852">
            <g transform="matrix(1, 0, 0, 1, 0, 0)" inkscape:label="#ffffff" opacity="1" id="Group_9aa5faefa1824ae79ceb2baa10fd65fa">
                <g fill-opacity="1" style="" inkscape:label="Fill" fill="#ffffff" id="Fill_7a0823b15d644d849e943f43fc74419f">
                    <path style="" sodipodi:nodetypes="cccccccc" d="M 994,1534 C 994,1534 994,1476 994,1476 994,1476 1051.5,1476 1051.5,1476 1051.5,1476 1109,1476 1109,1476 1109,1476 1109,1534 1109,1534 1109,1534 1109,1592 1109,1592 1109,1592 1051.5,1592 1051.5,1592 1051.5,1592 994,1592 994,1592 994,1592 994,1534 994,1534 Z"/>
                    <path style="" sodipodi:nodetypes="ccccccccccccccccccccccccccccc" d="M 999.298,1363.25 C 999.935,1336.83 1000.98,1323.27 1003.96,1302.49 1011.58,1249.51 1025.98,1219.73 1064.81,1176.68 1077.23,1162.91 1090.14,1150.75 1116.5,1127.98 1140.72,1107.06 1168.84,1079.47 1179.62,1066.06 1192.57,1049.94 1201.08,1031.63 1205.67,1010 1208.39,997.192 1208.15,970.23 1205.19,955.335 1199.21,925.246 1187.01,901.974 1166.49,881.5 1144.5,859.56 1119.48,846.741 1087,840.771 1070.25,837.692 1036.59,837.725 1019.6,840.837 971.484,849.652 937.287,876.026 915.934,920.792 908.465,936.45 900.764,961.458 897.084,982 897.084,982 895.383,991.5 895.383,991.5 895.383,991.5 840.691,991.759 840.691,991.759 840.691,991.759 786,992.017 786,992.017 786,992.017 786,989.56 786,989.56 786,988.208 786.694,981.81 787.542,975.341 799.058,887.491 846.841,819.016 922.5,781.937 961.182,762.98 1003.29,754 1053.5,754 1137.98,754 1206.83,779.254 1256.14,828.325 1296.7,868.687 1316.98,918.415 1317,977.576 1317.01,1030.67 1300,1076.74 1264.54,1119.66 1252.98,1133.65 1228.22,1158.32 1210.75,1173.25 1203.19,1179.71 1190.81,1190.28 1183.25,1196.74 1157.92,1218.37 1132.35,1245.11 1121.31,1261.5 1106.33,1283.75 1099.57,1314.08 1098.29,1364.75 1098.29,1364.75 1097.7,1388 1097.7,1388 1097.7,1388 1048.2,1388 1048.2,1388 1048.2,1388 998.701,1388 998.701,1388 998.701,1388 999.298,1363.25 999.298,1363.25 Z"/>
                </g>
            </g>
            <g transform="matrix(1, 0, 0, 1, 0, 0)" inkscape:label="#0084ff" opacity="1" id="Group_7b14f9f6a38b4a9c9bc13ab80ed266b1">
                <g fill-opacity="1" style="" inkscape:label="Fill 1" fill="#0084ff" id="Fill_1f137180517a46f8b449b2a57774d79d">
                    <path style="" sodipodi:nodetypes="cccccccccccccccccccccccccccccccccc" d="M 317,1788.92 C 305.725,1785.04 293.35,1780.83 289.5,1779.56 279.025,1776.11 237.006,1759.54 230.862,1756.44 211.843,1746.84 202.343,1740.49 192.117,1730.57 181.432,1720.21 169.64,1703.88 162.09,1689 156.035,1677.06 145.259,1641.31 137.377,1607 125.407,1554.89 121.318,1523.66 119.441,1470 118.441,1441.4 121.085,1417.6 131.609,1360.5 131.609,1360.5 140.086,1314.5 140.086,1314.5 140.086,1314.5 164.179,1231.5 164.179,1231.5 187.268,1151.96 188.7,1147.46 198.579,1123.5 209.971,1095.86 221.988,1073.57 241.158,1044.5 250.554,1030.25 254.152,1025.93 274.015,1005 286.283,992.075 299.025,978.648 302.329,975.161 310.917,966.1 314.807,965.045 322.657,969.645 331.751,974.974 341.069,990.789 349.562,1015.31 353.553,1026.83 361.681,1069.08 365.47,1098 369.466,1128.5 372.965,1168.14 373.018,1183.5 373.036,1189 374.31,1217.8 375.848,1247.5 377.986,1288.79 378.46,1304.91 377.864,1316 376.319,1344.71 376.661,1363.59 378.922,1374.34 380.06,1379.75 381.214,1384.54 381.487,1384.98 381.76,1385.42 383.082,1390.89 384.425,1397.14 386.734,1407.89 388.86,1415.98 397.383,1446.5 403.829,1469.58 409.304,1482.57 416.983,1493 419.613,1496.58 423.014,1501.83 424.539,1504.67 424.539,1504.67 427.311,1509.85 427.311,1509.85 427.311,1509.85 425.269,1514.67 425.269,1514.67 422.708,1520.72 420.848,1527.36 417.576,1542.12 417.576,1542.12 415,1553.74 415,1553.74 415,1553.74 415,1674.87 415,1674.87 415,1674.87 415,1796 415,1796 415,1796 376.25,1795.99 376.25,1795.99 376.25,1795.99 337.5,1795.98 337.5,1795.98 337.5,1795.98 317,1788.92 317,1788.92 Z"/>
                    <path style="" sodipodi:nodetypes="ccccccccccccccccccccccccccccccccccccccccccccccccccccccccc" d="M 464.256,1681.25 C 464.605,1569.22 464.663,1566.24 466.738,1555.32 475.236,1510.62 492.442,1477.43 522.938,1446.94 553.358,1416.52 587.346,1398.92 631.5,1390.74 641.983,1388.8 647.123,1388.68 740.794,1388.29 740.794,1388.29 839.087,1387.88 839.087,1387.88 839.087,1387.88 826.794,1380.15 826.794,1380.15 747.878,1330.49 684.861,1252.84 653.637,1166.8 638.986,1126.43 630.277,1084.04 627.849,1041.26 624.734,986.41 634.092,926.274 654.295,871.305 654.295,871.305 661.717,851.111 661.717,851.111 661.717,851.111 656.343,840.805 656.343,840.805 639.67,808.833 634.36,797.449 629.842,784 623.644,765.549 622.931,762.586 617.567,733 613.703,711.684 612.906,704.797 611.432,680 609.36,645.133 609.948,609.674 612.941,589 615.006,574.733 620.477,554.979 624.699,546.546 630.393,535.172 642.323,517.04 648.701,510.064 670.829,485.866 695.623,473.497 729.269,469.874 749.398,467.706 769.723,471.63 797,482.951 820.827,492.84 846.53,508.082 866.554,524.197 882.927,537.374 913.362,572.29 932.5,599.851 936.35,605.396 940.175,609.947 941,609.965 941.825,609.982 947.605,608.629 953.844,606.956 970.98,602.362 1006.61,597.227 1031,595.835 1047.31,594.905 1056.69,594.905 1073,595.835 1097.39,597.227 1133.02,602.362 1150.16,606.956 1156.4,608.629 1162.4,609.982 1163.5,609.965 1164.89,609.942 1167.64,606.85 1172.5,599.851 1183.45,584.077 1193.32,571.729 1211.02,551.657 1233.78,525.851 1249.96,513.025 1281.5,495.789 1307.28,481.699 1330.49,473.282 1351.73,470.315 1362.44,468.819 1365.42,468.764 1375.73,469.874 1409.38,473.497 1434.17,485.866 1456.3,510.064 1462.68,517.04 1474.61,535.172 1480.3,546.546 1484.52,554.979 1489.99,574.733 1492.06,589 1495.05,609.674 1495.64,645.133 1493.57,680 1492.09,704.797 1491.3,711.684 1487.43,733 1482.07,762.585 1481.36,765.548 1475.16,784 1470.55,797.726 1463.95,811.93 1450.11,837.924 1446.76,844.207 1443.77,850.149 1443.46,851.128 1443.15,852.111 1446.22,861.999 1450.32,873.204 1462.13,905.436 1466.2,921.206 1471.48,955.041 1478.56,1000.45 1478.56,1039.52 1471.49,1084.87 1466.06,1119.69 1462.5,1133.49 1450.37,1166.82 1441.56,1191.04 1427.06,1221.27 1414.65,1241.3 1394.39,1274.03 1366.44,1307.58 1337.09,1334.42 1317.68,1352.17 1287.09,1375.02 1268.55,1385.63 1268.55,1385.63 1264.61,1387.88 1264.61,1387.88 1264.61,1387.88 1363.05,1388.29 1363.05,1388.29 1456.88,1388.68 1462.02,1388.8 1472.5,1390.74 1516.71,1398.93 1550.6,1416.48 1581.06,1446.94 1611.9,1477.77 1629.99,1513.15 1637.66,1557.57 1639.19,1566.46 1639.41,1579.47 1639.73,1681.75 1639.73,1681.75 1640.09,1796 1640.09,1796 1640.09,1796 1052,1796 1052,1796 1052,1796 463.899,1796 463.899,1796 463.899,1796 464.256,1681.25 464.256,1681.25 Z"/>
                    <path style="" sodipodi:nodetypes="cccccccc" d="M 1109,1534 C 1109,1534 1109,1476 1109,1476 1109,1476 1051.5,1476 1051.5,1476 1051.5,1476 994,1476 994,1476 994,1476 994,1534 994,1534 994,1534 994,1592 994,1592 994,1592 1051.5,1592 1051.5,1592 1051.5,1592 1109,1592 1109,1592 1109,1592 1109,1534 1109,1534 Z"/>
                    <path style="" sodipodi:nodetypes="ccccccccccccccccccccccccccccc" d="M 1098.29,1364.75 C 1099.57,1314.08 1106.33,1283.75 1121.31,1261.5 1132.35,1245.11 1157.92,1218.37 1183.25,1196.74 1190.81,1190.28 1203.19,1179.71 1210.75,1173.25 1228.22,1158.32 1252.98,1133.65 1264.54,1119.66 1300,1076.74 1317.01,1030.67 1317,977.576 1316.98,918.415 1296.7,868.687 1256.14,828.325 1206.83,779.254 1137.98,754 1053.5,754 1003.29,754 961.182,762.98 922.5,781.937 846.841,819.016 799.058,887.491 787.542,975.341 786.694,981.81 786,988.208 786,989.56 786,989.56 786,992.017 786,992.017 786,992.017 840.691,991.759 840.691,991.759 840.691,991.759 895.383,991.5 895.383,991.5 895.383,991.5 897.084,982 897.084,982 900.764,961.458 908.465,936.45 915.934,920.792 937.287,876.026 971.484,849.652 1019.6,840.837 1036.59,837.725 1070.25,837.692 1087,840.771 1119.48,846.741 1144.5,859.56 1166.49,881.5 1187.01,901.974 1199.21,925.246 1205.19,955.335 1208.15,970.23 1208.39,997.192 1205.67,1010 1201.08,1031.63 1192.57,1049.94 1179.62,1066.06 1168.84,1079.47 1140.72,1107.06 1116.5,1127.98 1090.14,1150.75 1077.23,1162.91 1064.81,1176.68 1031.65,1213.45 1017,1239.69 1008.51,1277.54 1002.87,1302.68 1000.15,1328.04 999.298,1363.25 999.298,1363.25 998.701,1388 998.701,1388 998.701,1388 1048.2,1388 1048.2,1388 1048.2,1388 1097.7,1388 1097.7,1388 1097.7,1388 1098.29,1364.75 1098.29,1364.75 Z"/>
                </g>
            </g>
        </g>
    </g>
</svg>
